<?xml version="1.0" encoding="UTF-8" standalone="no"?>
<!DOCTYPE svg PUBLIC "-//W3C//DTD SVG 1.1//EN"
 "http://www.w3.org/Graphics/SVG/1.1/DTD/svg11.dtd">
<!-- Generated by graphviz version 2.44.1 (20200629.0846)
 -->
<!-- Title: dependency&#45;cruiser output Pages: 1 -->
<svg width="599pt" height="1362pt"
 viewBox="0.00 0.00 598.50 1362.18" xmlns="http://www.w3.org/2000/svg" xmlns:xlink="http://www.w3.org/1999/xlink">
<g id="graph0" class="graph" transform="scale(1 1) rotate(0) translate(4 1358.18)">
<title>dependency&#45;cruiser output</title>
<polygon fill="white" stroke="transparent" points="-4,4 -4,-1358.18 594.5,-1358.18 594.5,4 -4,4"/>
<g id="clust1" class="cluster">
<title>cluster_src</title>
<path fill="#ffffff" stroke="black" stroke-width="2" d="M20,-53.53C20,-53.53 570.5,-53.53 570.5,-53.53 576.5,-53.53 582.5,-59.53 582.5,-65.53 582.5,-65.53 582.5,-1295.53 582.5,-1295.53 582.5,-1301.53 576.5,-1307.53 570.5,-1307.53 570.5,-1307.53 20,-1307.53 20,-1307.53 14,-1307.53 8,-1301.53 8,-1295.53 8,-1295.53 8,-65.53 8,-65.53 8,-59.53 14,-53.53 20,-53.53"/>
<text text-anchor="middle" x="295.25" y="-1296.33" font-family="Helvetica,sans-Serif" font-weight="bold" font-size="9.00">src</text>
</g>
<g id="clust2" class="cluster">
<title>cluster_src/backtest</title>
<path fill="#ffffff" stroke="black" stroke-width="2" d="M40.5,-1167.53C40.5,-1167.53 347,-1167.53 347,-1167.53 353,-1167.53 359,-1173.53 359,-1179.53 359,-1179.53 359,-1267.53 359,-1267.53 359,-1273.53 353,-1279.53 347,-1279.53 347,-1279.53 40.5,-1279.53 40.5,-1279.53 34.5,-1279.53 28.5,-1273.53 28.5,-1267.53 28.5,-1267.53 28.5,-1179.53 28.5,-1179.53 28.5,-1173.53 34.5,-1167.53 40.5,-1167.53"/>
<text text-anchor="middle" x="193.75" y="-1268.33" font-family="Helvetica,sans-Serif" font-weight="bold" font-size="9.00">backtest</text>
</g>
<g id="clust3" class="cluster">
<title>cluster_src/configs</title>
<path fill="#ffffff" stroke="black" stroke-width="2" d="M28,-507.53C28,-507.53 100,-507.53 100,-507.53 106,-507.53 112,-513.53 112,-519.53 112,-519.53 112,-697.53 112,-697.53 112,-703.53 106,-709.53 100,-709.53 100,-709.53 28,-709.53 28,-709.53 22,-709.53 16,-703.53 16,-697.53 16,-697.53 16,-519.53 16,-519.53 16,-513.53 22,-507.53 28,-507.53"/>
<text text-anchor="middle" x="64" y="-698.33" font-family="Helvetica,sans-Serif" font-weight="bold" font-size="9.00">configs</text>
</g>
<g id="clust4" class="cluster">
<title>cluster_src/indicators</title>
<path fill="#ffffff" stroke="black" stroke-width="2" d="M406,-359.53C406,-359.53 562.5,-359.53 562.5,-359.53 568.5,-359.53 574.5,-365.53 574.5,-371.53 574.5,-371.53 574.5,-489.53 574.5,-489.53 574.5,-495.53 568.5,-501.53 562.5,-501.53 562.5,-501.53 406,-501.53 406,-501.53 400,-501.53 394,-495.53 394,-489.53 394,-489.53 394,-371.53 394,-371.53 394,-365.53 400,-359.53 406,-359.53"/>
<text text-anchor="middle" x="484.25" y="-490.33" font-family="Helvetica,sans-Serif" font-weight="bold" font-size="9.00">indicators</text>
</g>
<g id="clust5" class="cluster">
<title>cluster_src/patterns</title>
<path fill="#ffffff" stroke="black" stroke-width="2" d="M41,-61.53C41,-61.53 214.5,-61.53 214.5,-61.53 220.5,-61.53 226.5,-67.53 226.5,-73.53 226.5,-73.53 226.5,-135.53 226.5,-135.53 226.5,-141.53 220.5,-147.53 214.5,-147.53 214.5,-147.53 41,-147.53 41,-147.53 35,-147.53 29,-141.53 29,-135.53 29,-135.53 29,-73.53 29,-73.53 29,-67.53 35,-61.53 41,-61.53"/>
<text text-anchor="middle" x="127.75" y="-136.33" font-family="Helvetica,sans-Serif" font-weight="bold" font-size="9.00">patterns</text>
</g>
<g id="clust6" class="cluster">
<title>cluster_src/patterns/candles</title>
<path fill="#ffffff" stroke="black" stroke-width="2" d="M150.5,-69.53C150.5,-69.53 206.5,-69.53 206.5,-69.53 212.5,-69.53 218.5,-75.53 218.5,-81.53 218.5,-81.53 218.5,-109.53 218.5,-109.53 218.5,-115.53 212.5,-121.53 206.5,-121.53 206.5,-121.53 150.5,-121.53 150.5,-121.53 144.5,-121.53 138.5,-115.53 138.5,-109.53 138.5,-109.53 138.5,-81.53 138.5,-81.53 138.5,-75.53 144.5,-69.53 150.5,-69.53"/>
<text text-anchor="middle" x="178.5" y="-110.33" font-family="Helvetica,sans-Serif" font-weight="bold" font-size="9.00">candles</text>
</g>
<g id="clust7" class="cluster">
<title>cluster_src/strategies</title>
<path fill="#ffffff" stroke="black" stroke-width="2" d="M132,-203.53C132,-203.53 374,-203.53 374,-203.53 380,-203.53 386,-209.53 386,-215.53 386,-215.53 386,-779.53 386,-779.53 386,-785.53 380,-791.53 374,-791.53 374,-791.53 132,-791.53 132,-791.53 126,-791.53 120,-785.53 120,-779.53 120,-779.53 120,-215.53 120,-215.53 120,-209.53 126,-203.53 132,-203.53"/>
<text text-anchor="middle" x="253" y="-780.33" font-family="Helvetica,sans-Serif" font-weight="bold" font-size="9.00">strategies</text>
</g>
<g id="clust8" class="cluster">
<title>cluster_src/strategies/entry</title>
<path fill="#ffffff" stroke="black" stroke-width="2" d="M155.5,-387.53C155.5,-387.53 366,-387.53 366,-387.53 372,-387.53 378,-393.53 378,-399.53 378,-399.53 378,-607.53 378,-607.53 378,-613.53 372,-619.53 366,-619.53 366,-619.53 155.5,-619.53 155.5,-619.53 149.5,-619.53 143.5,-613.53 143.5,-607.53 143.5,-607.53 143.5,-399.53 143.5,-399.53 143.5,-393.53 149.5,-387.53 155.5,-387.53"/>
<text text-anchor="middle" x="260.75" y="-608.33" font-family="Helvetica,sans-Serif" font-weight="bold" font-size="9.00">entry</text>
</g>
<g id="clust9" class="cluster">
<title>cluster_src/strategies/exit</title>
<path fill="#ffffff" stroke="black" stroke-width="2" d="M155,-627.53C155,-627.53 333,-627.53 333,-627.53 339,-627.53 345,-633.53 345,-639.53 345,-639.53 345,-727.53 345,-727.53 345,-733.53 339,-739.53 333,-739.53 333,-739.53 155,-739.53 155,-739.53 149,-739.53 143,-733.53 143,-727.53 143,-727.53 143,-639.53 143,-639.53 143,-633.53 149,-627.53 155,-627.53"/>
<text text-anchor="middle" x="244" y="-728.33" font-family="Helvetica,sans-Serif" font-weight="bold" font-size="9.00">exit</text>
</g>
<g id="clust10" class="cluster">
<title>cluster_src/strategies/trend</title>
<path fill="#ffffff" stroke="black" stroke-width="2" d="M155.5,-267.53C155.5,-267.53 337,-267.53 337,-267.53 343,-267.53 349,-273.53 349,-279.53 349,-279.53 349,-367.53 349,-367.53 349,-373.53 343,-379.53 337,-379.53 337,-379.53 155.5,-379.53 155.5,-379.53 149.5,-379.53 143.5,-373.53 143.5,-367.53 143.5,-367.53 143.5,-279.53 143.5,-279.53 143.5,-273.53 149.5,-267.53 155.5,-267.53"/>
<text text-anchor="middle" x="246.25" y="-368.33" font-family="Helvetica,sans-Serif" font-weight="bold" font-size="9.00">trend</text>
</g>
<g id="clust11" class="cluster">
<title>cluster_src/tools</title>
<path fill="#ffffff" stroke="black" stroke-width="2" d="M282,-1083.53C282,-1083.53 330,-1083.53 330,-1083.53 336,-1083.53 342,-1089.53 342,-1095.53 342,-1095.53 342,-1123.53 342,-1123.53 342,-1129.53 336,-1135.53 330,-1135.53 330,-1135.53 282,-1135.53 282,-1135.53 276,-1135.53 270,-1129.53 270,-1123.53 270,-1123.53 270,-1095.53 270,-1095.53 270,-1089.53 276,-1083.53 282,-1083.53"/>
<text text-anchor="middle" x="306" y="-1124.33" font-family="Helvetica,sans-Serif" font-weight="bold" font-size="9.00">tools</text>
</g>
<g id="clust12" class="cluster">
<title>cluster_src/utils</title>
<path fill="#ffffff" stroke="black" stroke-width="2" d="M263.5,-819.53C263.5,-819.53 452.5,-819.53 452.5,-819.53 458.5,-819.53 464.5,-825.53 464.5,-831.53 464.5,-831.53 464.5,-1039.53 464.5,-1039.53 464.5,-1045.53 458.5,-1051.53 452.5,-1051.53 452.5,-1051.53 263.5,-1051.53 263.5,-1051.53 257.5,-1051.53 251.5,-1045.53 251.5,-1039.53 251.5,-1039.53 251.5,-831.53 251.5,-831.53 251.5,-825.53 257.5,-819.53 263.5,-819.53"/>
<text text-anchor="middle" x="358" y="-1040.33" font-family="Helvetica,sans-Serif" font-weight="bold" font-size="9.00">utils</text>
</g>
<!-- fs -->
<g id="node1" class="node">
<title>fs</title>
<g id="a_node1"><a xlink:title="fs">
<path fill="#ffffcc" stroke="grey" d="M540.5,-45.53C540.5,-45.53 498.5,-45.53 498.5,-45.53 495.5,-45.53 492.5,-42.53 492.5,-39.53 492.5,-39.53 492.5,-33.53 492.5,-33.53 492.5,-30.53 495.5,-27.53 498.5,-27.53 498.5,-27.53 540.5,-27.53 540.5,-27.53 543.5,-27.53 546.5,-30.53 546.5,-33.53 546.5,-33.53 546.5,-39.53 546.5,-39.53 546.5,-42.53 543.5,-45.53 540.5,-45.53"/>
<text text-anchor="middle" x="519.5" y="-34.33" font-family="Helvetica,sans-Serif" font-size="9.00" fill="grey">fs</text>
</a>
</g>
</g>
<!-- path -->
<g id="node2" class="node">
<title>path</title>
<g id="a_node2"><a xlink:title="path">
<path fill="#ffffcc" stroke="grey" d="M540.5,-1333.53C540.5,-1333.53 498.5,-1333.53 498.5,-1333.53 495.5,-1333.53 492.5,-1330.53 492.5,-1327.53 492.5,-1327.53 492.5,-1321.53 492.5,-1321.53 492.5,-1318.53 495.5,-1315.53 498.5,-1315.53 498.5,-1315.53 540.5,-1315.53 540.5,-1315.53 543.5,-1315.53 546.5,-1318.53 546.5,-1321.53 546.5,-1321.53 546.5,-1327.53 546.5,-1327.53 546.5,-1330.53 543.5,-1333.53 540.5,-1333.53"/>
<text text-anchor="middle" x="519.5" y="-1322.33" font-family="Helvetica,sans-Serif" font-size="9.00" fill="grey">path</text>
</a>
</g>
</g>
<!-- src/backtest/bot.ts -->
<g id="node3" class="node">
<title>src/backtest/bot.ts</title>
<g id="a_node3"><a xlink:href="src/backtest/bot.ts" xlink:title="bot.ts">
<path fill="#ddfeff" stroke="black" d="M199.5,-1193.53C199.5,-1193.53 157.5,-1193.53 157.5,-1193.53 154.5,-1193.53 151.5,-1190.53 151.5,-1187.53 151.5,-1187.53 151.5,-1181.53 151.5,-1181.53 151.5,-1178.53 154.5,-1175.53 157.5,-1175.53 157.5,-1175.53 199.5,-1175.53 199.5,-1175.53 202.5,-1175.53 205.5,-1178.53 205.5,-1181.53 205.5,-1181.53 205.5,-1187.53 205.5,-1187.53 205.5,-1190.53 202.5,-1193.53 199.5,-1193.53"/>
<text text-anchor="start" x="167.5" y="-1182.33" font-family="Helvetica,sans-Serif" font-size="9.00">bot.ts</text>
</a>
</g>
</g>
<!-- src/init.ts -->
<g id="node4" class="node">
<title>src/init.ts</title>
<g id="a_node4"><a xlink:href="src/init.ts" xlink:title="init.ts">
<path fill="#ddfeff" stroke="black" d="M450.5,-1083.53C450.5,-1083.53 408.5,-1083.53 408.5,-1083.53 405.5,-1083.53 402.5,-1080.53 402.5,-1077.53 402.5,-1077.53 402.5,-1071.53 402.5,-1071.53 402.5,-1068.53 405.5,-1065.53 408.5,-1065.53 408.5,-1065.53 450.5,-1065.53 450.5,-1065.53 453.5,-1065.53 456.5,-1068.53 456.5,-1071.53 456.5,-1071.53 456.5,-1077.53 456.5,-1077.53 456.5,-1080.53 453.5,-1083.53 450.5,-1083.53"/>
<text text-anchor="start" x="418.5" y="-1072.33" font-family="Helvetica,sans-Serif" font-size="9.00">init.ts</text>
</a>
</g>
</g>
<!-- src/backtest/bot.ts&#45;&gt;src/init.ts -->
<g id="edge1" class="edge">
<title>src/backtest/bot.ts&#45;&gt;src/init.ts</title>
<path fill="none" stroke="#000000" stroke-width="2" stroke-opacity="0.200000" d="M205.68,-1186.01C214.16,-1187.76 222.94,-1191.15 229,-1197.53 248.4,-1217.93 220.14,-1241.78 242,-1259.53 266.84,-1279.7 360.97,-1279.46 386,-1259.53 412.68,-1238.28 424,-1130.41 427.36,-1089.92"/>
<polygon fill="#000000" fill-opacity="0.200000" stroke="#000000" stroke-width="2" stroke-opacity="0.200000" points="429.48,-1089.74 427.86,-1083.59 425.29,-1089.41 429.48,-1089.74"/>
</g>
<!-- src/tools/counter.ts -->
<g id="node5" class="node">
<title>src/tools/counter.ts</title>
<g id="a_node5"><a xlink:href="src/tools/counter.ts" xlink:title="counter.ts">
<path fill="#ddfeff" stroke="black" d="M328,-1109.53C328,-1109.53 284,-1109.53 284,-1109.53 281,-1109.53 278,-1106.53 278,-1103.53 278,-1103.53 278,-1097.53 278,-1097.53 278,-1094.53 281,-1091.53 284,-1091.53 284,-1091.53 328,-1091.53 328,-1091.53 331,-1091.53 334,-1094.53 334,-1097.53 334,-1097.53 334,-1103.53 334,-1103.53 334,-1106.53 331,-1109.53 328,-1109.53"/>
<text text-anchor="start" x="286" y="-1098.33" font-family="Helvetica,sans-Serif" font-size="9.00">counter.ts</text>
</a>
</g>
</g>
<!-- src/backtest/bot.ts&#45;&gt;src/tools/counter.ts -->
<g id="edge2" class="edge">
<title>src/backtest/bot.ts&#45;&gt;src/tools/counter.ts</title>
<path fill="none" stroke="#000000" stroke-width="2" stroke-opacity="0.200000" d="M205.54,-1182.25C213.81,-1180.41 222.49,-1177.18 229,-1171.53 240.28,-1161.73 232.36,-1151.94 242,-1140.53 251.93,-1128.77 266.21,-1119.31 278.67,-1112.54"/>
<polygon fill="#000000" fill-opacity="0.200000" stroke="#000000" stroke-width="2" stroke-opacity="0.200000" points="279.9,-1114.27 284.24,-1109.63 277.95,-1110.55 279.9,-1114.27"/>
</g>
<!-- src/utils/currencyInfo.ts -->
<g id="node6" class="node">
<title>src/utils/currencyInfo.ts</title>
<g id="a_node6"><a xlink:href="src/utils/currencyInfo.ts" xlink:title="currencyInfo.ts">
<path fill="#ddfeff" stroke="black" d="M338,-845.53C338,-845.53 274,-845.53 274,-845.53 271,-845.53 268,-842.53 268,-839.53 268,-839.53 268,-833.53 268,-833.53 268,-830.53 271,-827.53 274,-827.53 274,-827.53 338,-827.53 338,-827.53 341,-827.53 344,-830.53 344,-833.53 344,-833.53 344,-839.53 344,-839.53 344,-842.53 341,-845.53 338,-845.53"/>
<text text-anchor="start" x="276" y="-834.33" font-family="Helvetica,sans-Serif" font-size="9.00">currencyInfo.ts</text>
</a>
</g>
</g>
<!-- src/backtest/bot.ts&#45;&gt;src/utils/currencyInfo.ts -->
<g id="edge3" class="edge">
<title>src/backtest/bot.ts&#45;&gt;src/utils/currencyInfo.ts</title>
<path fill="none" stroke="#000000" stroke-width="2" stroke-opacity="0.200000" d="M205.52,-1183.74C214.31,-1182.09 223.32,-1178.59 229,-1171.53 251.3,-1143.8 219.38,-879 242,-851.53 247.13,-845.3 254.32,-841.39 262.03,-838.98"/>
<polygon fill="#000000" fill-opacity="0.200000" stroke="#000000" stroke-width="2" stroke-opacity="0.200000" points="262.73,-840.97 268,-837.42 261.66,-836.9 262.73,-840.97"/>
</g>
<!-- src/utils/loadCandleData.ts -->
<g id="node7" class="node">
<title>src/utils/loadCandleData.ts</title>
<g id="a_node7"><a xlink:href="src/utils/loadCandleData.ts" xlink:title="loadCandleData.ts">
<path fill="#ddfeff" stroke="black" d="M346.5,-935.53C346.5,-935.53 265.5,-935.53 265.5,-935.53 262.5,-935.53 259.5,-932.53 259.5,-929.53 259.5,-929.53 259.5,-923.53 259.5,-923.53 259.5,-920.53 262.5,-917.53 265.5,-917.53 265.5,-917.53 346.5,-917.53 346.5,-917.53 349.5,-917.53 352.5,-920.53 352.5,-923.53 352.5,-923.53 352.5,-929.53 352.5,-929.53 352.5,-932.53 349.5,-935.53 346.5,-935.53"/>
<text text-anchor="start" x="267.5" y="-924.33" font-family="Helvetica,sans-Serif" font-size="9.00">loadCandleData.ts</text>
</a>
</g>
</g>
<!-- src/backtest/bot.ts&#45;&gt;src/utils/loadCandleData.ts -->
<g id="edge4" class="edge">
<title>src/backtest/bot.ts&#45;&gt;src/utils/loadCandleData.ts</title>
<path fill="none" stroke="#000000" stroke-width="2" stroke-opacity="0.200000" d="M205.72,-1183.64C214.42,-1181.96 223.32,-1178.48 229,-1171.53 261.4,-1131.89 209.15,-980.79 242,-941.53 245.2,-937.71 249.17,-934.76 253.56,-932.5"/>
<polygon fill="#000000" fill-opacity="0.200000" stroke="#000000" stroke-width="2" stroke-opacity="0.200000" points="254.66,-934.31 259.32,-929.99 252.98,-930.46 254.66,-934.31"/>
</g>
<!-- src/utils/math.ts -->
<g id="node8" class="node">
<title>src/utils/math.ts</title>
<g id="a_node8"><a xlink:href="src/utils/math.ts" xlink:title="math.ts">
<path fill="#ddfeff" stroke="black" d="M450.5,-845.53C450.5,-845.53 408.5,-845.53 408.5,-845.53 405.5,-845.53 402.5,-842.53 402.5,-839.53 402.5,-839.53 402.5,-833.53 402.5,-833.53 402.5,-830.53 405.5,-827.53 408.5,-827.53 408.5,-827.53 450.5,-827.53 450.5,-827.53 453.5,-827.53 456.5,-830.53 456.5,-833.53 456.5,-833.53 456.5,-839.53 456.5,-839.53 456.5,-842.53 453.5,-845.53 450.5,-845.53"/>
<text text-anchor="start" x="414.5" y="-834.33" font-family="Helvetica,sans-Serif" font-size="9.00">math.ts</text>
</a>
</g>
</g>
<!-- src/backtest/bot.ts&#45;&gt;src/utils/math.ts -->
<g id="edge5" class="edge">
<title>src/backtest/bot.ts&#45;&gt;src/utils/math.ts</title>
<path fill="none" stroke="#000000" stroke-width="2" stroke-opacity="0.200000" d="M205.62,-1178.11C216.81,-1175.4 230.03,-1172.25 242,-1169.53 305.83,-1155 344.17,-1188.88 386,-1138.53 406.53,-1113.82 375.36,-875.69 394,-849.53 394.94,-848.2 396.04,-847.02 397.24,-845.95"/>
<polygon fill="#000000" fill-opacity="0.200000" stroke="#000000" stroke-width="2" stroke-opacity="0.200000" points="398.63,-847.54 402.38,-842.4 396.25,-844.09 398.63,-847.54"/>
</g>
<!-- src/utils/object.ts -->
<g id="node9" class="node">
<title>src/utils/object.ts</title>
<g id="a_node9"><a xlink:href="src/utils/object.ts" xlink:title="object.ts">
<path fill="#ddfeff" stroke="black" d="M327,-995.53C327,-995.53 285,-995.53 285,-995.53 282,-995.53 279,-992.53 279,-989.53 279,-989.53 279,-983.53 279,-983.53 279,-980.53 282,-977.53 285,-977.53 285,-977.53 327,-977.53 327,-977.53 330,-977.53 333,-980.53 333,-983.53 333,-983.53 333,-989.53 333,-989.53 333,-992.53 330,-995.53 327,-995.53"/>
<text text-anchor="start" x="289" y="-984.33" font-family="Helvetica,sans-Serif" font-size="9.00">object.ts</text>
</a>
</g>
</g>
<!-- src/backtest/bot.ts&#45;&gt;src/utils/object.ts -->
<g id="edge6" class="edge">
<title>src/backtest/bot.ts&#45;&gt;src/utils/object.ts</title>
<path fill="none" stroke="#000000" stroke-width="2" stroke-opacity="0.200000" d="M205.64,-1183.58C214.33,-1181.9 223.25,-1178.42 229,-1171.53 253.27,-1142.43 217.4,-1030.34 242,-1001.53 249.58,-992.65 261.36,-988.51 272.7,-986.72"/>
<polygon fill="#000000" fill-opacity="0.200000" stroke="#000000" stroke-width="2" stroke-opacity="0.200000" points="273.23,-988.77 278.93,-985.95 272.71,-984.6 273.23,-988.77"/>
</g>
<!-- src/utils/timeFrame.ts -->
<g id="node10" class="node">
<title>src/utils/timeFrame.ts</title>
<g id="a_node10"><a xlink:href="src/utils/timeFrame.ts" xlink:title="timeFrame.ts">
<path fill="#ddfeff" stroke="black" d="M334.5,-1025.53C334.5,-1025.53 277.5,-1025.53 277.5,-1025.53 274.5,-1025.53 271.5,-1022.53 271.5,-1019.53 271.5,-1019.53 271.5,-1013.53 271.5,-1013.53 271.5,-1010.53 274.5,-1007.53 277.5,-1007.53 277.5,-1007.53 334.5,-1007.53 334.5,-1007.53 337.5,-1007.53 340.5,-1010.53 340.5,-1013.53 340.5,-1013.53 340.5,-1019.53 340.5,-1019.53 340.5,-1022.53 337.5,-1025.53 334.5,-1025.53"/>
<text text-anchor="start" x="279.5" y="-1014.33" font-family="Helvetica,sans-Serif" font-size="9.00">timeFrame.ts</text>
</a>
</g>
</g>
<!-- src/backtest/bot.ts&#45;&gt;src/utils/timeFrame.ts -->
<g id="edge7" class="edge">
<title>src/backtest/bot.ts&#45;&gt;src/utils/timeFrame.ts</title>
<path fill="none" stroke="#000000" stroke-width="2" stroke-opacity="0.200000" d="M205.66,-1183.32C214.24,-1181.6 223.09,-1178.16 229,-1171.53 256.18,-1141.03 223.87,-1117.14 242,-1080.53 252.44,-1059.44 272.47,-1040.97 287.15,-1029.36"/>
<polygon fill="#000000" fill-opacity="0.200000" stroke="#000000" stroke-width="2" stroke-opacity="0.200000" points="288.44,-1031.02 291.9,-1025.69 285.87,-1027.7 288.44,-1031.02"/>
</g>
<!-- src/utils/trailingStop.ts -->
<g id="node11" class="node">
<title>src/utils/trailingStop.ts</title>
<g id="a_node11"><a xlink:href="src/utils/trailingStop.ts" xlink:title="trailingStop.ts">
<path fill="#ddfeff" stroke="black" d="M336,-905.53C336,-905.53 276,-905.53 276,-905.53 273,-905.53 270,-902.53 270,-899.53 270,-899.53 270,-893.53 270,-893.53 270,-890.53 273,-887.53 276,-887.53 276,-887.53 336,-887.53 336,-887.53 339,-887.53 342,-890.53 342,-893.53 342,-893.53 342,-899.53 342,-899.53 342,-902.53 339,-905.53 336,-905.53"/>
<text text-anchor="start" x="278" y="-894.33" font-family="Helvetica,sans-Serif" font-size="9.00">trailingStop.ts</text>
</a>
</g>
</g>
<!-- src/backtest/bot.ts&#45;&gt;src/utils/trailingStop.ts -->
<g id="edge8" class="edge">
<title>src/backtest/bot.ts&#45;&gt;src/utils/trailingStop.ts</title>
<path fill="none" stroke="#000000" stroke-width="2" stroke-opacity="0.200000" d="M205.74,-1183.66C214.45,-1181.99 223.34,-1178.49 229,-1171.53 265.46,-1126.62 205.02,-956.01 242,-911.53 247.55,-904.85 255.48,-900.84 263.85,-898.49"/>
<polygon fill="#000000" fill-opacity="0.200000" stroke="#000000" stroke-width="2" stroke-opacity="0.200000" points="264.33,-900.53 269.69,-897.12 263.37,-896.45 264.33,-900.53"/>
</g>
<!-- src/backtest/database.ts -->
<g id="node12" class="node">
<title>src/backtest/database.ts</title>
<g id="a_node12"><a xlink:href="src/backtest/database.ts" xlink:title="database.ts">
<path fill="#ddfeff" stroke="black" d="M332,-1193.53C332,-1193.53 280,-1193.53 280,-1193.53 277,-1193.53 274,-1190.53 274,-1187.53 274,-1187.53 274,-1181.53 274,-1181.53 274,-1178.53 277,-1175.53 280,-1175.53 280,-1175.53 332,-1175.53 332,-1175.53 335,-1175.53 338,-1178.53 338,-1181.53 338,-1181.53 338,-1187.53 338,-1187.53 338,-1190.53 335,-1193.53 332,-1193.53"/>
<text text-anchor="start" x="282" y="-1182.33" font-family="Helvetica,sans-Serif" font-size="9.00">database.ts</text>
</a>
</g>
</g>
<!-- src/backtest/bot.ts&#45;&gt;src/backtest/database.ts -->
<g id="edge9" class="edge">
<title>src/backtest/bot.ts&#45;&gt;src/backtest/database.ts</title>
<path fill="none" stroke="#000000" stroke-width="2" stroke-opacity="0.200000" d="M205.5,-1184.53C223.46,-1184.53 247.62,-1184.53 267.63,-1184.53"/>
<polygon fill="#000000" fill-opacity="0.200000" stroke="#000000" stroke-width="2" stroke-opacity="0.200000" points="267.7,-1186.63 273.7,-1184.53 267.7,-1182.43 267.7,-1186.63"/>
</g>
<!-- src/backtest/debug.ts -->
<g id="node13" class="node">
<title>src/backtest/debug.ts</title>
<g id="a_node13"><a xlink:href="src/backtest/debug.ts" xlink:title="debug.ts">
<path fill="#ddfeff" stroke="black" d="M327,-1223.53C327,-1223.53 285,-1223.53 285,-1223.53 282,-1223.53 279,-1220.53 279,-1217.53 279,-1217.53 279,-1211.53 279,-1211.53 279,-1208.53 282,-1205.53 285,-1205.53 285,-1205.53 327,-1205.53 327,-1205.53 330,-1205.53 333,-1208.53 333,-1211.53 333,-1211.53 333,-1217.53 333,-1217.53 333,-1220.53 330,-1223.53 327,-1223.53"/>
<text text-anchor="start" x="288" y="-1212.33" font-family="Helvetica,sans-Serif" font-size="9.00">debug.ts</text>
</a>
</g>
</g>
<!-- src/backtest/bot.ts&#45;&gt;src/backtest/debug.ts -->
<g id="edge10" class="edge">
<title>src/backtest/bot.ts&#45;&gt;src/backtest/debug.ts</title>
<g id="a_edge10"><a xlink:title="no&#45;circular">
<path fill="none" stroke="orange" stroke-width="2" d="M205.65,-1185.29C216.84,-1187.5 230.06,-1190.67 242,-1193.53 252.55,-1196.05 264.1,-1198.8 274.4,-1201.57"/>
<polygon fill="orange" stroke="orange" stroke-width="2" points="281.54,-1205.83 287.89,-1205.48 282.71,-1201.8 281.54,-1205.83"/>
<polyline fill="none" stroke="orange" stroke-width="2" points="282.12,-1203.81 279.24,-1202.98 "/>
<ellipse fill="none" stroke="orange" stroke-width="2" cx="276.94" cy="-1202.31" rx="2.4" ry="2.4"/>
</a>
</g>
<text text-anchor="middle" x="269.01" y="-1197.53" font-family="Helvetica,sans-Serif" font-size="9.00" fill="orange">no&#45;circular</text>
</g>
<!-- src/backtest/generateReport.ts -->
<g id="node14" class="node">
<title>src/backtest/generateReport.ts</title>
<g id="a_node14"><a xlink:href="src/backtest/generateReport.ts" xlink:title="generateReport.ts">
<path fill="#ddfeff" stroke="black" d="M345,-1253.53C345,-1253.53 267,-1253.53 267,-1253.53 264,-1253.53 261,-1250.53 261,-1247.53 261,-1247.53 261,-1241.53 261,-1241.53 261,-1238.53 264,-1235.53 267,-1235.53 267,-1235.53 345,-1235.53 345,-1235.53 348,-1235.53 351,-1238.53 351,-1241.53 351,-1241.53 351,-1247.53 351,-1247.53 351,-1250.53 348,-1253.53 345,-1253.53"/>
<text text-anchor="start" x="269" y="-1242.33" font-family="Helvetica,sans-Serif" font-size="9.00">generateReport.ts</text>
</a>
</g>
</g>
<!-- src/backtest/bot.ts&#45;&gt;src/backtest/generateReport.ts -->
<g id="edge11" class="edge">
<title>src/backtest/bot.ts&#45;&gt;src/backtest/generateReport.ts</title>
<path fill="none" stroke="#000000" stroke-width="2" stroke-opacity="0.200000" d="M205.57,-1186.76C213.85,-1188.59 222.53,-1191.84 229,-1197.53 240.53,-1207.66 230.35,-1219.53 242,-1229.53 245.86,-1232.84 250.33,-1235.46 255.07,-1237.51"/>
<polygon fill="#000000" fill-opacity="0.200000" stroke="#000000" stroke-width="2" stroke-opacity="0.200000" points="254.38,-1239.49 260.73,-1239.67 255.88,-1235.57 254.38,-1239.49"/>
</g>
<!-- src/init.ts&#45;&gt;fs -->
<g id="edge55" class="edge">
<title>src/init.ts&#45;&gt;fs</title>
<path fill="none" stroke="#000000" stroke-dasharray="5,2" stroke-opacity="0.200000" d="M453.42,-1065.45C457.83,-1062.62 461.89,-1059.03 464.5,-1054.53 474.22,-1037.75 471.01,-375.86 472.5,-356.53 481.63,-238.39 506.99,-97.47 515.6,-51.69"/>
<polygon fill="#000000" fill-opacity="0.200000" stroke="#000000" stroke-opacity="0.200000" points="517.69,-51.93 516.74,-45.64 513.56,-51.15 517.69,-51.93"/>
</g>
<!-- src/init.ts&#45;&gt;path -->
<g id="edge56" class="edge">
<title>src/init.ts&#45;&gt;path</title>
<path fill="none" stroke="#000000" stroke-dasharray="5,2" stroke-opacity="0.200000" d="M433.97,-1083.54C440.22,-1099.84 453.74,-1135.34 464.5,-1165.53 483.25,-1218.12 504.17,-1281.01 513.52,-1309.35"/>
<polygon fill="#000000" fill-opacity="0.200000" stroke="#000000" stroke-opacity="0.200000" points="511.56,-1310.13 515.43,-1315.17 515.55,-1308.82 511.56,-1310.13"/>
</g>
<!-- src/utils/dayjsPlugins.ts -->
<g id="node37" class="node">
<title>src/utils/dayjsPlugins.ts</title>
<g id="a_node37"><a xlink:href="src/utils/dayjsPlugins.ts" xlink:title="dayjsPlugins.ts">
<path fill="#ddfeff" stroke="black" d="M339,-965.53C339,-965.53 273,-965.53 273,-965.53 270,-965.53 267,-962.53 267,-959.53 267,-959.53 267,-953.53 267,-953.53 267,-950.53 270,-947.53 273,-947.53 273,-947.53 339,-947.53 339,-947.53 342,-947.53 345,-950.53 345,-953.53 345,-953.53 345,-959.53 345,-959.53 345,-962.53 342,-965.53 339,-965.53"/>
<text text-anchor="start" x="275" y="-954.33" font-family="Helvetica,sans-Serif" font-size="9.00">dayjsPlugins.ts</text>
</a>
</g>
</g>
<!-- src/init.ts&#45;&gt;src/utils/dayjsPlugins.ts -->
<g id="edge54" class="edge">
<title>src/init.ts&#45;&gt;src/utils/dayjsPlugins.ts</title>
<path fill="none" stroke="#000000" stroke-width="2" stroke-opacity="0.200000" d="M405.53,-1065.34C401.04,-1062.52 396.84,-1058.95 394,-1054.53 383.99,-1038.93 398.49,-985.22 386,-971.53 377.19,-961.87 364.25,-957.27 351.38,-955.32"/>
<polygon fill="#000000" fill-opacity="0.200000" stroke="#000000" stroke-width="2" stroke-opacity="0.200000" points="351.29,-953.19 345.09,-954.57 350.79,-957.36 351.29,-953.19"/>
</g>
<!-- src/utils/currencyInfo.ts&#45;&gt;src/utils/math.ts -->
<g id="edge83" class="edge">
<title>src/utils/currencyInfo.ts&#45;&gt;src/utils/math.ts</title>
<path fill="none" stroke="#000000" stroke-width="2" stroke-opacity="0.200000" d="M344.11,-836.53C360.75,-836.53 380.18,-836.53 396.21,-836.53"/>
<polygon fill="#000000" fill-opacity="0.200000" stroke="#000000" stroke-width="2" stroke-opacity="0.200000" points="396.39,-838.63 402.39,-836.53 396.39,-834.43 396.39,-838.63"/>
</g>
<!-- src/utils/loadCandleData.ts&#45;&gt;fs -->
<g id="edge85" class="edge">
<title>src/utils/loadCandleData.ts&#45;&gt;fs</title>
<path fill="none" stroke="#000000" stroke-dasharray="5,2" stroke-opacity="0.200000" d="M352.56,-928.06C365.22,-926.07 377.75,-921.37 386,-911.53 397.14,-898.25 389.94,-304.38 394,-287.53 417.37,-190.63 483.1,-88.03 508.4,-50.94"/>
<polygon fill="#000000" fill-opacity="0.200000" stroke="#000000" stroke-opacity="0.200000" points="510.16,-52.09 511.83,-45.96 506.7,-49.71 510.16,-52.09"/>
</g>
<!-- src/utils/loadCandleData.ts&#45;&gt;path -->
<g id="edge86" class="edge">
<title>src/utils/loadCandleData.ts&#45;&gt;path</title>
<path fill="none" stroke="#000000" stroke-dasharray="5,2" stroke-opacity="0.200000" d="M352.84,-925.18C365.35,-927.21 377.72,-931.89 386,-941.53 402.15,-960.34 385.53,-1141.22 394,-1164.53 417.07,-1228.01 475.51,-1286.22 503.33,-1311.4"/>
<polygon fill="#000000" fill-opacity="0.200000" stroke="#000000" stroke-opacity="0.200000" points="501.97,-1312.99 507.84,-1315.43 504.77,-1309.86 501.97,-1312.99"/>
</g>
<!-- src/utils/loadCandleData.ts&#45;&gt;src/init.ts -->
<g id="edge84" class="edge">
<title>src/utils/loadCandleData.ts&#45;&gt;src/init.ts</title>
<path fill="none" stroke="#000000" stroke-width="2" stroke-opacity="0.200000" d="M352.63,-925.36C365.13,-927.4 377.56,-932.03 386,-941.53 402.73,-960.34 380.67,-1033.17 394,-1054.53 395.65,-1057.18 397.8,-1059.51 400.21,-1061.57"/>
<polygon fill="#000000" fill-opacity="0.200000" stroke="#000000" stroke-width="2" stroke-opacity="0.200000" points="399.36,-1063.55 405.45,-1065.39 401.84,-1060.16 399.36,-1063.55"/>
</g>
<!-- src/utils/trailingStop.ts&#45;&gt;src/utils/math.ts -->
<g id="edge88" class="edge">
<title>src/utils/trailingStop.ts&#45;&gt;src/utils/math.ts</title>
<path fill="none" stroke="#000000" stroke-width="2" stroke-opacity="0.200000" d="M342.27,-897.89C357.5,-896.62 374.43,-892.45 386,-881.53 396.66,-871.46 384.25,-860.47 394,-849.53 394.93,-848.48 395.96,-847.51 397.06,-846.63"/>
<polygon fill="#000000" fill-opacity="0.200000" stroke="#000000" stroke-width="2" stroke-opacity="0.200000" points="398.39,-848.27 402.25,-843.22 396.08,-844.76 398.39,-848.27"/>
</g>
<!-- src/backtest/debug.ts&#45;&gt;src/backtest/bot.ts -->
<g id="edge14" class="edge">
<title>src/backtest/debug.ts&#45;&gt;src/backtest/bot.ts</title>
<g id="a_edge14"><a xlink:title="no&#45;circular">
<path fill="none" stroke="orange" stroke-width="2" d="M278.94,-1213.85C267.59,-1211.63 254.14,-1208.43 242,-1205.53 231.53,-1203.02 220.06,-1200.28 209.85,-1197.5"/>
<polygon fill="orange" stroke="orange" stroke-width="2" points="202.82,-1193.26 196.48,-1193.59 201.64,-1197.29 202.82,-1193.26"/>
<polyline fill="none" stroke="orange" stroke-width="2" points="202.23,-1195.27 205.11,-1196.11 "/>
<ellipse fill="none" stroke="orange" stroke-width="2" cx="207.42" cy="-1196.79" rx="2.4" ry="2.4"/>
</a>
</g>
<text text-anchor="middle" x="215.53" y="-1197.26" font-family="Helvetica,sans-Serif" font-size="9.00" fill="orange">no&#45;circular</text>
</g>
<!-- src/backtest/debug.ts&#45;&gt;src/init.ts -->
<g id="edge12" class="edge">
<title>src/backtest/debug.ts&#45;&gt;src/init.ts</title>
<path fill="none" stroke="#000000" stroke-width="2" stroke-opacity="0.200000" d="M333.35,-1215.94C350.27,-1215.43 371.67,-1211.98 386,-1199.53 418.7,-1171.12 426.28,-1116.53 428.01,-1089.9"/>
<polygon fill="#000000" fill-opacity="0.200000" stroke="#000000" stroke-width="2" stroke-opacity="0.200000" points="430.11,-1089.87 428.34,-1083.76 425.92,-1089.64 430.11,-1089.87"/>
</g>
<!-- src/backtest/debug.ts&#45;&gt;src/utils/math.ts -->
<g id="edge13" class="edge">
<title>src/backtest/debug.ts&#45;&gt;src/utils/math.ts</title>
<path fill="none" stroke="#000000" stroke-width="2" stroke-opacity="0.200000" d="M333.18,-1217.26C350.92,-1217.53 373.36,-1214.44 386,-1199.53 398.57,-1184.69 382.75,-865.39 394,-849.53 394.94,-848.2 396.03,-847.01 397.24,-845.94"/>
<polygon fill="#000000" fill-opacity="0.200000" stroke="#000000" stroke-width="2" stroke-opacity="0.200000" points="398.63,-847.54 402.36,-842.39 396.23,-844.08 398.63,-847.54"/>
</g>
<!-- src/backtest/generateReport.ts&#45;&gt;fs -->
<g id="edge15" class="edge">
<title>src/backtest/generateReport.ts&#45;&gt;fs</title>
<path fill="none" stroke="#000000" stroke-dasharray="5,2" stroke-opacity="0.200000" d="M351.35,-1246.27C364.42,-1244.39 377.5,-1239.7 386,-1229.53 401.55,-1210.92 388.35,-380.11 394,-356.53 410.41,-288 438.52,-280.02 464.5,-214.53 487.85,-155.68 507.11,-82.57 514.84,-51.56"/>
<polygon fill="#000000" fill-opacity="0.200000" stroke="#000000" stroke-opacity="0.200000" points="516.92,-51.93 516.32,-45.6 512.84,-50.92 516.92,-51.93"/>
</g>
<!-- src/backtest/generateReport.ts&#45;&gt;path -->
<g id="edge16" class="edge">
<title>src/backtest/generateReport.ts&#45;&gt;path</title>
<path fill="none" stroke="#000000" stroke-dasharray="5,2" stroke-opacity="0.200000" d="M332.47,-1253.6C363.69,-1264.8 418.18,-1284.57 464.5,-1302.53 473.17,-1305.89 482.56,-1309.67 491.05,-1313.13"/>
<polygon fill="#000000" fill-opacity="0.200000" stroke="#000000" stroke-opacity="0.200000" points="490.41,-1315.14 496.76,-1315.47 492,-1311.25 490.41,-1315.14"/>
</g>
<!-- src/backtest/index.ts -->
<g id="node15" class="node">
<title>src/backtest/index.ts</title>
<g id="a_node15"><a xlink:href="src/backtest/index.ts" xlink:title="index.ts">
<path fill="#ddfeff" stroke="black" d="M85,-1238.53C85,-1238.53 43,-1238.53 43,-1238.53 40,-1238.53 37,-1235.53 37,-1232.53 37,-1232.53 37,-1226.53 37,-1226.53 37,-1223.53 40,-1220.53 43,-1220.53 43,-1220.53 85,-1220.53 85,-1220.53 88,-1220.53 91,-1223.53 91,-1226.53 91,-1226.53 91,-1232.53 91,-1232.53 91,-1235.53 88,-1238.53 85,-1238.53"/>
<text text-anchor="start" x="48" y="-1227.33" font-family="Helvetica,sans-Serif" font-size="9.00">index.ts</text>
</a>
</g>
</g>
<!-- src/backtest/index.ts&#45;&gt;src/backtest/bot.ts -->
<g id="edge18" class="edge">
<title>src/backtest/index.ts&#45;&gt;src/backtest/bot.ts</title>
<path fill="none" stroke="#000000" stroke-width="2" stroke-opacity="0.200000" d="M90.13,-1220.32C97.59,-1216.94 105.49,-1212.65 112,-1207.53 116.47,-1204.01 115.18,-1200.55 120,-1197.53 127.61,-1192.76 136.76,-1189.74 145.5,-1187.82"/>
<polygon fill="#000000" fill-opacity="0.200000" stroke="#000000" stroke-width="2" stroke-opacity="0.200000" points="145.97,-1189.87 151.46,-1186.66 145.17,-1185.74 145.97,-1189.87"/>
</g>
<!-- src/backtest/index.ts&#45;&gt;src/init.ts -->
<g id="edge17" class="edge">
<title>src/backtest/index.ts&#45;&gt;src/init.ts</title>
<path fill="none" stroke="#000000" stroke-width="2" stroke-opacity="0.200000" d="M80.53,-1238.57C130.98,-1266.64 292.41,-1346 386,-1270.53 414.3,-1247.71 424.71,-1131.69 427.59,-1089.71"/>
<polygon fill="#000000" fill-opacity="0.200000" stroke="#000000" stroke-width="2" stroke-opacity="0.200000" points="429.69,-1089.76 427.98,-1083.64 425.5,-1089.49 429.69,-1089.76"/>
</g>
<!-- src/backtest/types.d.ts -->
<g id="node16" class="node">
<title>src/backtest/types.d.ts</title>
<g id="a_node16"><a xlink:href="src/backtest/types.d.ts" xlink:title="types.d.ts">
<path fill="#ccffcc" stroke="black" d="M85.5,-1201.53C85.5,-1201.53 42.5,-1201.53 42.5,-1201.53 39.5,-1201.53 36.5,-1198.53 36.5,-1195.53 36.5,-1195.53 36.5,-1189.53 36.5,-1189.53 36.5,-1186.53 39.5,-1183.53 42.5,-1183.53 42.5,-1183.53 85.5,-1183.53 85.5,-1183.53 88.5,-1183.53 91.5,-1186.53 91.5,-1189.53 91.5,-1189.53 91.5,-1195.53 91.5,-1195.53 91.5,-1198.53 88.5,-1201.53 85.5,-1201.53"/>
<text text-anchor="start" x="44.5" y="-1190.33" font-family="Helvetica,sans-Serif" font-size="9.00">types.d.ts</text>
</a>
</g>
</g>
<!-- src/bot.ts -->
<g id="node17" class="node">
<title>src/bot.ts</title>
<g id="a_node17"><a xlink:href="src/bot.ts" xlink:title="bot.ts">
<path fill="#ddfeff" stroke="black" d="M199.5,-920.53C199.5,-920.53 157.5,-920.53 157.5,-920.53 154.5,-920.53 151.5,-917.53 151.5,-914.53 151.5,-914.53 151.5,-908.53 151.5,-908.53 151.5,-905.53 154.5,-902.53 157.5,-902.53 157.5,-902.53 199.5,-902.53 199.5,-902.53 202.5,-902.53 205.5,-905.53 205.5,-908.53 205.5,-908.53 205.5,-914.53 205.5,-914.53 205.5,-917.53 202.5,-920.53 199.5,-920.53"/>
<text text-anchor="start" x="167.5" y="-909.33" font-family="Helvetica,sans-Serif" font-size="9.00">bot.ts</text>
</a>
</g>
</g>
<!-- src/bot.ts&#45;&gt;src/init.ts -->
<g id="edge19" class="edge">
<title>src/bot.ts&#45;&gt;src/init.ts</title>
<path fill="none" stroke="#000000" stroke-width="2" stroke-opacity="0.200000" d="M180.04,-920.79C182.2,-948.25 192.66,-1029.43 242,-1064.53 265.96,-1081.57 349.57,-1079.48 396.29,-1076.82"/>
<polygon fill="#000000" fill-opacity="0.200000" stroke="#000000" stroke-width="2" stroke-opacity="0.200000" points="396.49,-1078.91 402.35,-1076.46 396.24,-1074.72 396.49,-1078.91"/>
</g>
<!-- src/bot.ts&#45;&gt;src/tools/counter.ts -->
<g id="edge20" class="edge">
<title>src/bot.ts&#45;&gt;src/tools/counter.ts</title>
<path fill="none" stroke="#000000" stroke-width="2" stroke-opacity="0.200000" d="M179.79,-920.92C181.24,-950.45 189.92,-1042.17 242,-1087.53 250.17,-1094.64 261.19,-1098.23 271.72,-1099.94"/>
<polygon fill="#000000" fill-opacity="0.200000" stroke="#000000" stroke-width="2" stroke-opacity="0.200000" points="271.63,-1102.05 277.85,-1100.75 272.17,-1097.89 271.63,-1102.05"/>
</g>
<!-- src/bot.ts&#45;&gt;src/utils/currencyInfo.ts -->
<g id="edge21" class="edge">
<title>src/bot.ts&#45;&gt;src/utils/currencyInfo.ts</title>
<path fill="none" stroke="#000000" stroke-width="2" stroke-opacity="0.200000" d="M186.47,-902.23C196.99,-888.89 218.23,-864.49 242,-851.53 248.17,-848.16 255.08,-845.55 262.01,-843.51"/>
<polygon fill="#000000" fill-opacity="0.200000" stroke="#000000" stroke-width="2" stroke-opacity="0.200000" points="262.57,-845.54 267.81,-841.94 261.47,-841.48 262.57,-845.54"/>
</g>
<!-- src/bot.ts&#45;&gt;src/utils/loadCandleData.ts -->
<g id="edge22" class="edge">
<title>src/bot.ts&#45;&gt;src/utils/loadCandleData.ts</title>
<path fill="none" stroke="#000000" stroke-width="2" stroke-opacity="0.200000" d="M205.5,-914.64C219.38,-916.29 236.96,-918.39 253.46,-920.37"/>
<polygon fill="#000000" fill-opacity="0.200000" stroke="#000000" stroke-width="2" stroke-opacity="0.200000" points="253.28,-922.46 259.49,-921.09 253.78,-918.29 253.28,-922.46"/>
</g>
<!-- src/bot.ts&#45;&gt;src/utils/math.ts -->
<g id="edge24" class="edge">
<title>src/bot.ts&#45;&gt;src/utils/math.ts</title>
<path fill="none" stroke="#000000" stroke-width="2" stroke-opacity="0.200000" d="M182.53,-902.45C189.49,-883.28 208.62,-838.98 242,-821.53 292.82,-794.95 362.25,-812.16 400.45,-825.41"/>
<polygon fill="#000000" fill-opacity="0.200000" stroke="#000000" stroke-width="2" stroke-opacity="0.200000" points="399.94,-827.46 406.3,-827.49 401.35,-823.5 399.94,-827.46"/>
</g>
<!-- src/bot.ts&#45;&gt;src/utils/trailingStop.ts -->
<g id="edge25" class="edge">
<title>src/bot.ts&#45;&gt;src/utils/trailingStop.ts</title>
<path fill="none" stroke="#000000" stroke-width="2" stroke-opacity="0.200000" d="M205.5,-908.42C222.35,-906.41 244.65,-903.74 263.86,-901.44"/>
<polygon fill="#000000" fill-opacity="0.200000" stroke="#000000" stroke-width="2" stroke-opacity="0.200000" points="264.28,-903.51 269.98,-900.71 263.78,-899.34 264.28,-903.51"/>
</g>
<!-- src/utils/log.ts -->
<g id="node18" class="node">
<title>src/utils/log.ts</title>
<g id="a_node18"><a xlink:href="src/utils/log.ts" xlink:title="log.ts">
<path fill="#ddfeff" stroke="black" d="M327,-875.53C327,-875.53 285,-875.53 285,-875.53 282,-875.53 279,-872.53 279,-869.53 279,-869.53 279,-863.53 279,-863.53 279,-860.53 282,-857.53 285,-857.53 285,-857.53 327,-857.53 327,-857.53 330,-857.53 333,-860.53 333,-863.53 333,-863.53 333,-869.53 333,-869.53 333,-872.53 330,-875.53 327,-875.53"/>
<text text-anchor="start" x="295" y="-864.33" font-family="Helvetica,sans-Serif" font-size="9.00">log.ts</text>
</a>
</g>
</g>
<!-- src/bot.ts&#45;&gt;src/utils/log.ts -->
<g id="edge23" class="edge">
<title>src/bot.ts&#45;&gt;src/utils/log.ts</title>
<path fill="none" stroke="#000000" stroke-width="2" stroke-opacity="0.200000" d="M195.8,-902.51C208.18,-895.96 225.78,-887.28 242,-881.53 251.83,-878.04 262.81,-875.11 272.81,-872.8"/>
<polygon fill="#000000" fill-opacity="0.200000" stroke="#000000" stroke-width="2" stroke-opacity="0.200000" points="273.5,-874.79 278.89,-871.43 272.58,-870.7 273.5,-874.79"/>
</g>
<!-- src/utils/log.ts&#45;&gt;src/init.ts -->
<g id="edge87" class="edge">
<title>src/utils/log.ts&#45;&gt;src/init.ts</title>
<path fill="none" stroke="#000000" stroke-width="2" stroke-opacity="0.200000" d="M333.07,-863.88C350.77,-863.66 373.19,-866.77 386,-881.53 398.61,-896.06 384.01,-1038.08 394,-1054.53 395.62,-1057.2 397.74,-1059.55 400.14,-1061.61"/>
<polygon fill="#000000" fill-opacity="0.200000" stroke="#000000" stroke-width="2" stroke-opacity="0.200000" points="399.29,-1063.59 405.37,-1065.44 401.77,-1060.2 399.29,-1063.59"/>
</g>
<!-- src/configs/longTerm.ts -->
<g id="node19" class="node">
<title>src/configs/longTerm.ts</title>
<g id="a_node19"><a xlink:href="src/configs/longTerm.ts" xlink:title="longTerm.ts">
<path fill="#ddfeff" stroke="black" d="M90,-683.53C90,-683.53 38,-683.53 38,-683.53 35,-683.53 32,-680.53 32,-677.53 32,-677.53 32,-671.53 32,-671.53 32,-668.53 35,-665.53 38,-665.53 38,-665.53 90,-665.53 90,-665.53 93,-665.53 96,-668.53 96,-671.53 96,-671.53 96,-677.53 96,-677.53 96,-680.53 93,-683.53 90,-683.53"/>
<text text-anchor="start" x="40" y="-672.33" font-family="Helvetica,sans-Serif" font-size="9.00">longTerm.ts</text>
</a>
</g>
</g>
<!-- src/indicators/index.ts -->
<g id="node20" class="node">
<title>src/indicators/index.ts</title>
<g id="a_node20"><a xlink:href="src/indicators/index.ts" xlink:title="index.ts">
<path fill="#ddfeff" stroke="black" d="M450.5,-445.53C450.5,-445.53 408.5,-445.53 408.5,-445.53 405.5,-445.53 402.5,-442.53 402.5,-439.53 402.5,-439.53 402.5,-433.53 402.5,-433.53 402.5,-430.53 405.5,-427.53 408.5,-427.53 408.5,-427.53 450.5,-427.53 450.5,-427.53 453.5,-427.53 456.5,-430.53 456.5,-433.53 456.5,-433.53 456.5,-439.53 456.5,-439.53 456.5,-442.53 453.5,-445.53 450.5,-445.53"/>
<text text-anchor="start" x="413.5" y="-434.33" font-family="Helvetica,sans-Serif" font-size="9.00">index.ts</text>
</a>
</g>
</g>
<!-- src/configs/longTerm.ts&#45;&gt;src/indicators/index.ts -->
<g id="edge26" class="edge">
<title>src/configs/longTerm.ts&#45;&gt;src/indicators/index.ts</title>
<path fill="none" stroke="#000000" stroke-width="2" stroke-opacity="0.200000" d="M96.46,-677.56C102.42,-679.56 108.02,-682.69 112,-687.53 127.14,-705.95 102.52,-778.31 120,-794.53 137.75,-811 205.09,-798.38 229,-794.53 301.57,-782.82 338.96,-799.01 386,-742.53 423.44,-697.58 427.93,-507.06 428.44,-451.68"/>
<polygon fill="#000000" fill-opacity="0.200000" stroke="#000000" stroke-width="2" stroke-opacity="0.200000" points="430.54,-451.63 428.49,-445.62 426.34,-451.6 430.54,-451.63"/>
</g>
<!-- src/strategies/entry/index.ts -->
<g id="node21" class="node">
<title>src/strategies/entry/index.ts</title>
<g id="a_node21"><a xlink:href="src/strategies/entry/index.ts" xlink:title="index.ts">
<path fill="#ddfeff" stroke="black" d="M199.5,-563.53C199.5,-563.53 157.5,-563.53 157.5,-563.53 154.5,-563.53 151.5,-560.53 151.5,-557.53 151.5,-557.53 151.5,-551.53 151.5,-551.53 151.5,-548.53 154.5,-545.53 157.5,-545.53 157.5,-545.53 199.5,-545.53 199.5,-545.53 202.5,-545.53 205.5,-548.53 205.5,-551.53 205.5,-551.53 205.5,-557.53 205.5,-557.53 205.5,-560.53 202.5,-563.53 199.5,-563.53"/>
<text text-anchor="start" x="162.5" y="-552.33" font-family="Helvetica,sans-Serif" font-size="9.00">index.ts</text>
</a>
</g>
</g>
<!-- src/configs/longTerm.ts&#45;&gt;src/strategies/entry/index.ts -->
<g id="edge27" class="edge">
<title>src/configs/longTerm.ts&#45;&gt;src/strategies/entry/index.ts</title>
<path fill="none" stroke="#000000" stroke-width="2" stroke-opacity="0.200000" d="M96.47,-669.46C102.28,-667.24 107.83,-664.07 112,-659.53 122.8,-647.78 112.97,-638.85 120,-624.53 130.74,-602.65 149.55,-581.61 162.72,-568.41"/>
<polygon fill="#000000" fill-opacity="0.200000" stroke="#000000" stroke-width="2" stroke-opacity="0.200000" points="164.48,-569.61 167.29,-563.91 161.54,-566.62 164.48,-569.61"/>
</g>
<!-- src/strategies/exit/index.ts -->
<g id="node22" class="node">
<title>src/strategies/exit/index.ts</title>
<g id="a_node22"><a xlink:href="src/strategies/exit/index.ts" xlink:title="index.ts">
<path fill="#ddfeff" stroke="black" d="M199.5,-683.53C199.5,-683.53 157.5,-683.53 157.5,-683.53 154.5,-683.53 151.5,-680.53 151.5,-677.53 151.5,-677.53 151.5,-671.53 151.5,-671.53 151.5,-668.53 154.5,-665.53 157.5,-665.53 157.5,-665.53 199.5,-665.53 199.5,-665.53 202.5,-665.53 205.5,-668.53 205.5,-671.53 205.5,-671.53 205.5,-677.53 205.5,-677.53 205.5,-680.53 202.5,-683.53 199.5,-683.53"/>
<text text-anchor="start" x="162.5" y="-672.33" font-family="Helvetica,sans-Serif" font-size="9.00">index.ts</text>
</a>
</g>
</g>
<!-- src/configs/longTerm.ts&#45;&gt;src/strategies/exit/index.ts -->
<g id="edge28" class="edge">
<title>src/configs/longTerm.ts&#45;&gt;src/strategies/exit/index.ts</title>
<path fill="none" stroke="#000000" stroke-width="2" stroke-opacity="0.200000" d="M96.04,-674.53C111.18,-674.53 129.39,-674.53 144.74,-674.53"/>
<polygon fill="#000000" fill-opacity="0.200000" stroke="#000000" stroke-width="2" stroke-opacity="0.200000" points="145.14,-676.63 151.14,-674.53 145.14,-672.43 145.14,-676.63"/>
</g>
<!-- src/strategies/riskManagement.ts -->
<g id="node23" class="node">
<title>src/strategies/riskManagement.ts</title>
<g id="a_node23"><a xlink:href="src/strategies/riskManagement.ts" xlink:title="riskManagement.ts">
<path fill="#ddfeff" stroke="black" d="M219.5,-765.53C219.5,-765.53 137.5,-765.53 137.5,-765.53 134.5,-765.53 131.5,-762.53 131.5,-759.53 131.5,-759.53 131.5,-753.53 131.5,-753.53 131.5,-750.53 134.5,-747.53 137.5,-747.53 137.5,-747.53 219.5,-747.53 219.5,-747.53 222.5,-747.53 225.5,-750.53 225.5,-753.53 225.5,-753.53 225.5,-759.53 225.5,-759.53 225.5,-762.53 222.5,-765.53 219.5,-765.53"/>
<text text-anchor="start" x="139.5" y="-754.33" font-family="Helvetica,sans-Serif" font-size="9.00">riskManagement.ts</text>
</a>
</g>
</g>
<!-- src/configs/longTerm.ts&#45;&gt;src/strategies/riskManagement.ts -->
<g id="edge29" class="edge">
<title>src/configs/longTerm.ts&#45;&gt;src/strategies/riskManagement.ts</title>
<path fill="none" stroke="#000000" stroke-width="2" stroke-opacity="0.200000" d="M96.21,-677.77C102.18,-679.76 107.86,-682.83 112,-687.53 128.34,-706.05 103.38,-724.26 120,-742.53 121.79,-744.49 123.8,-746.21 125.98,-747.69"/>
<polygon fill="#000000" fill-opacity="0.200000" stroke="#000000" stroke-width="2" stroke-opacity="0.200000" points="125.08,-749.6 131.32,-750.78 127.18,-745.96 125.08,-749.6"/>
</g>
<!-- src/indicators/fibonacci.ts -->
<g id="node32" class="node">
<title>src/indicators/fibonacci.ts</title>
<g id="a_node32"><a xlink:href="src/indicators/fibonacci.ts" xlink:title="fibonacci.ts">
<path fill="#ddfeff" stroke="black" d="M544.5,-475.53C544.5,-475.53 494.5,-475.53 494.5,-475.53 491.5,-475.53 488.5,-472.53 488.5,-469.53 488.5,-469.53 488.5,-463.53 488.5,-463.53 488.5,-460.53 491.5,-457.53 494.5,-457.53 494.5,-457.53 544.5,-457.53 544.5,-457.53 547.5,-457.53 550.5,-460.53 550.5,-463.53 550.5,-463.53 550.5,-469.53 550.5,-469.53 550.5,-472.53 547.5,-475.53 544.5,-475.53"/>
<text text-anchor="start" x="496.5" y="-464.33" font-family="Helvetica,sans-Serif" font-size="9.00">fibonacci.ts</text>
</a>
</g>
</g>
<!-- src/indicators/index.ts&#45;&gt;src/indicators/fibonacci.ts -->
<g id="edge50" class="edge">
<title>src/indicators/index.ts&#45;&gt;src/indicators/fibonacci.ts</title>
<path fill="none" stroke="#000000" stroke-width="2" stroke-opacity="0.200000" d="M455.78,-445.68C461.28,-447.64 467.08,-449.68 472.5,-451.53 476.35,-452.84 480.38,-454.19 484.4,-455.52"/>
<polygon fill="#000000" fill-opacity="0.200000" stroke="#000000" stroke-width="2" stroke-opacity="0.200000" points="483.88,-457.57 490.24,-457.45 485.2,-453.58 483.88,-457.57"/>
</g>
<!-- src/indicators/pivots.ts -->
<g id="node33" class="node">
<title>src/indicators/pivots.ts</title>
<g id="a_node33"><a xlink:href="src/indicators/pivots.ts" xlink:title="pivots.ts">
<path fill="#ddfeff" stroke="black" d="M540.5,-415.53C540.5,-415.53 498.5,-415.53 498.5,-415.53 495.5,-415.53 492.5,-412.53 492.5,-409.53 492.5,-409.53 492.5,-403.53 492.5,-403.53 492.5,-400.53 495.5,-397.53 498.5,-397.53 498.5,-397.53 540.5,-397.53 540.5,-397.53 543.5,-397.53 546.5,-400.53 546.5,-403.53 546.5,-403.53 546.5,-409.53 546.5,-409.53 546.5,-412.53 543.5,-415.53 540.5,-415.53"/>
<text text-anchor="start" x="502.5" y="-404.33" font-family="Helvetica,sans-Serif" font-size="9.00">pivots.ts</text>
</a>
</g>
</g>
<!-- src/indicators/index.ts&#45;&gt;src/indicators/pivots.ts -->
<g id="edge51" class="edge">
<title>src/indicators/index.ts&#45;&gt;src/indicators/pivots.ts</title>
<path fill="none" stroke="#000000" stroke-width="2" stroke-opacity="0.200000" d="M455.78,-427.37C461.28,-425.41 467.08,-423.38 472.5,-421.53 476.97,-420 481.7,-418.42 486.35,-416.88"/>
<polygon fill="#000000" fill-opacity="0.200000" stroke="#000000" stroke-width="2" stroke-opacity="0.200000" points="487.14,-418.84 492.19,-414.97 485.83,-414.84 487.14,-418.84"/>
</g>
<!-- src/indicators/supertrend.ts -->
<g id="node34" class="node">
<title>src/indicators/supertrend.ts</title>
<g id="a_node34"><a xlink:href="src/indicators/supertrend.ts" xlink:title="supertrend.ts">
<path fill="#ddfeff" stroke="black" d="M548.5,-445.53C548.5,-445.53 490.5,-445.53 490.5,-445.53 487.5,-445.53 484.5,-442.53 484.5,-439.53 484.5,-439.53 484.5,-433.53 484.5,-433.53 484.5,-430.53 487.5,-427.53 490.5,-427.53 490.5,-427.53 548.5,-427.53 548.5,-427.53 551.5,-427.53 554.5,-430.53 554.5,-433.53 554.5,-433.53 554.5,-439.53 554.5,-439.53 554.5,-442.53 551.5,-445.53 548.5,-445.53"/>
<text text-anchor="start" x="492.5" y="-434.33" font-family="Helvetica,sans-Serif" font-size="9.00">supertrend.ts</text>
</a>
</g>
</g>
<!-- src/indicators/index.ts&#45;&gt;src/indicators/supertrend.ts -->
<g id="edge52" class="edge">
<title>src/indicators/index.ts&#45;&gt;src/indicators/supertrend.ts</title>
<path fill="none" stroke="#000000" stroke-width="2" stroke-opacity="0.200000" d="M456.9,-436.53C463.63,-436.53 471.01,-436.53 478.25,-436.53"/>
<polygon fill="#000000" fill-opacity="0.200000" stroke="#000000" stroke-width="2" stroke-opacity="0.200000" points="478.29,-438.63 484.29,-436.53 478.29,-434.43 478.29,-438.63"/>
</g>
<!-- src/indicators/volumeOscillator.ts -->
<g id="node35" class="node">
<title>src/indicators/volumeOscillator.ts</title>
<g id="a_node35"><a xlink:href="src/indicators/volumeOscillator.ts" xlink:title="volumeOscillator.ts">
<path fill="#ddfeff" stroke="black" d="M560.5,-385.53C560.5,-385.53 478.5,-385.53 478.5,-385.53 475.5,-385.53 472.5,-382.53 472.5,-379.53 472.5,-379.53 472.5,-373.53 472.5,-373.53 472.5,-370.53 475.5,-367.53 478.5,-367.53 478.5,-367.53 560.5,-367.53 560.5,-367.53 563.5,-367.53 566.5,-370.53 566.5,-373.53 566.5,-373.53 566.5,-379.53 566.5,-379.53 566.5,-382.53 563.5,-385.53 560.5,-385.53"/>
<text text-anchor="start" x="480.5" y="-374.33" font-family="Helvetica,sans-Serif" font-size="9.00">volumeOscillator.ts</text>
</a>
</g>
</g>
<!-- src/indicators/index.ts&#45;&gt;src/indicators/volumeOscillator.ts -->
<g id="edge53" class="edge">
<title>src/indicators/index.ts&#45;&gt;src/indicators/volumeOscillator.ts</title>
<path fill="none" stroke="#000000" stroke-width="2" stroke-opacity="0.200000" d="M442.81,-427.46C449.75,-421.93 458.25,-414.43 464.5,-406.53 469.19,-400.6 466.71,-396.38 472.5,-391.53 473.68,-390.54 474.93,-389.61 476.23,-388.74"/>
<polygon fill="#000000" fill-opacity="0.200000" stroke="#000000" stroke-width="2" stroke-opacity="0.200000" points="477.34,-390.53 481.47,-385.69 475.23,-386.9 477.34,-390.53"/>
</g>
<!-- src/strategies/entry/macdStrategy.ts -->
<g id="node41" class="node">
<title>src/strategies/entry/macdStrategy.ts</title>
<g id="a_node41"><a xlink:href="src/strategies/entry/macdStrategy.ts" xlink:title="macdStrategy.ts">
<path fill="#ddfeff" stroke="black" d="M341,-533.53C341,-533.53 271,-533.53 271,-533.53 268,-533.53 265,-530.53 265,-527.53 265,-527.53 265,-521.53 265,-521.53 265,-518.53 268,-515.53 271,-515.53 271,-515.53 341,-515.53 341,-515.53 344,-515.53 347,-518.53 347,-521.53 347,-521.53 347,-527.53 347,-527.53 347,-530.53 344,-533.53 341,-533.53"/>
<text text-anchor="start" x="273" y="-522.33" font-family="Helvetica,sans-Serif" font-size="9.00">macdStrategy.ts</text>
</a>
</g>
</g>
<!-- src/strategies/entry/index.ts&#45;&gt;src/strategies/entry/macdStrategy.ts -->
<g id="edge60" class="edge">
<title>src/strategies/entry/index.ts&#45;&gt;src/strategies/entry/macdStrategy.ts</title>
<path fill="none" stroke="#000000" stroke-width="2" stroke-opacity="0.200000" d="M205.65,-548.24C216.84,-545.55 230.06,-542.38 242,-539.53 248.2,-538.05 254.73,-536.49 261.16,-534.95"/>
<polygon fill="#000000" fill-opacity="0.200000" stroke="#000000" stroke-width="2" stroke-opacity="0.200000" points="261.67,-536.99 267.02,-533.56 260.7,-532.91 261.67,-536.99"/>
</g>
<!-- src/strategies/entry/maCrossStrategy.ts -->
<g id="node42" class="node">
<title>src/strategies/entry/maCrossStrategy.ts</title>
<g id="a_node42"><a xlink:href="src/strategies/entry/maCrossStrategy.ts" xlink:title="maCrossStrategy.ts">
<path fill="#ddfeff" stroke="black" d="M348,-563.53C348,-563.53 264,-563.53 264,-563.53 261,-563.53 258,-560.53 258,-557.53 258,-557.53 258,-551.53 258,-551.53 258,-548.53 261,-545.53 264,-545.53 264,-545.53 348,-545.53 348,-545.53 351,-545.53 354,-548.53 354,-551.53 354,-551.53 354,-557.53 354,-557.53 354,-560.53 351,-563.53 348,-563.53"/>
<text text-anchor="start" x="266" y="-552.33" font-family="Helvetica,sans-Serif" font-size="9.00">maCrossStrategy.ts</text>
</a>
</g>
</g>
<!-- src/strategies/entry/index.ts&#45;&gt;src/strategies/entry/maCrossStrategy.ts -->
<g id="edge61" class="edge">
<title>src/strategies/entry/index.ts&#45;&gt;src/strategies/entry/maCrossStrategy.ts</title>
<path fill="none" stroke="#000000" stroke-width="2" stroke-opacity="0.200000" d="M205.5,-554.53C218.88,-554.53 235.69,-554.53 251.67,-554.53"/>
<polygon fill="#000000" fill-opacity="0.200000" stroke="#000000" stroke-width="2" stroke-opacity="0.200000" points="251.98,-556.63 257.98,-554.53 251.98,-552.43 251.98,-556.63"/>
</g>
<!-- src/strategies/entry/maStrategy.ts -->
<g id="node43" class="node">
<title>src/strategies/entry/maStrategy.ts</title>
<g id="a_node43"><a xlink:href="src/strategies/entry/maStrategy.ts" xlink:title="maStrategy.ts">
<path fill="#ddfeff" stroke="black" d="M336,-593.53C336,-593.53 276,-593.53 276,-593.53 273,-593.53 270,-590.53 270,-587.53 270,-587.53 270,-581.53 270,-581.53 270,-578.53 273,-575.53 276,-575.53 276,-575.53 336,-575.53 336,-575.53 339,-575.53 342,-578.53 342,-581.53 342,-581.53 342,-587.53 342,-587.53 342,-590.53 339,-593.53 336,-593.53"/>
<text text-anchor="start" x="278" y="-582.33" font-family="Helvetica,sans-Serif" font-size="9.00">maStrategy.ts</text>
</a>
</g>
</g>
<!-- src/strategies/entry/index.ts&#45;&gt;src/strategies/entry/maStrategy.ts -->
<g id="edge62" class="edge">
<title>src/strategies/entry/index.ts&#45;&gt;src/strategies/entry/maStrategy.ts</title>
<path fill="none" stroke="#000000" stroke-width="2" stroke-opacity="0.200000" d="M205.65,-560.81C216.84,-563.5 230.06,-566.67 242,-569.53 249.01,-571.2 256.45,-572.98 263.67,-574.7"/>
<polygon fill="#000000" fill-opacity="0.200000" stroke="#000000" stroke-width="2" stroke-opacity="0.200000" points="263.35,-576.78 269.68,-576.13 264.33,-572.7 263.35,-576.78"/>
</g>
<!-- src/strategies/entry/reloadZoneStrategy.ts -->
<g id="node44" class="node">
<title>src/strategies/entry/reloadZoneStrategy.ts</title>
<g id="a_node44"><a xlink:href="src/strategies/entry/reloadZoneStrategy.ts" xlink:title="reloadZoneStrategy.ts">
<path fill="#ddfeff" stroke="black" d="M353.5,-413.53C353.5,-413.53 258.5,-413.53 258.5,-413.53 255.5,-413.53 252.5,-410.53 252.5,-407.53 252.5,-407.53 252.5,-401.53 252.5,-401.53 252.5,-398.53 255.5,-395.53 258.5,-395.53 258.5,-395.53 353.5,-395.53 353.5,-395.53 356.5,-395.53 359.5,-398.53 359.5,-401.53 359.5,-401.53 359.5,-407.53 359.5,-407.53 359.5,-410.53 356.5,-413.53 353.5,-413.53"/>
<text text-anchor="start" x="260.5" y="-402.33" font-family="Helvetica,sans-Serif" font-size="9.00">reloadZoneStrategy.ts</text>
</a>
</g>
</g>
<!-- src/strategies/entry/index.ts&#45;&gt;src/strategies/entry/reloadZoneStrategy.ts -->
<g id="edge63" class="edge">
<title>src/strategies/entry/index.ts&#45;&gt;src/strategies/entry/reloadZoneStrategy.ts</title>
<path fill="none" stroke="#000000" stroke-width="2" stroke-opacity="0.200000" d="M180.94,-545.3C185.29,-520.75 200.61,-453.37 242,-419.53 243.57,-418.25 245.22,-417.07 246.95,-415.99"/>
<polygon fill="#000000" fill-opacity="0.200000" stroke="#000000" stroke-width="2" stroke-opacity="0.200000" points="248.08,-417.77 252.33,-413.04 246.06,-414.09 248.08,-417.77"/>
</g>
<!-- src/strategies/entry/rsiStrategy.ts -->
<g id="node45" class="node">
<title>src/strategies/entry/rsiStrategy.ts</title>
<g id="a_node45"><a xlink:href="src/strategies/entry/rsiStrategy.ts" xlink:title="rsiStrategy.ts">
<path fill="#ddfeff" stroke="black" d="M334.5,-443.53C334.5,-443.53 277.5,-443.53 277.5,-443.53 274.5,-443.53 271.5,-440.53 271.5,-437.53 271.5,-437.53 271.5,-431.53 271.5,-431.53 271.5,-428.53 274.5,-425.53 277.5,-425.53 277.5,-425.53 334.5,-425.53 334.5,-425.53 337.5,-425.53 340.5,-428.53 340.5,-431.53 340.5,-431.53 340.5,-437.53 340.5,-437.53 340.5,-440.53 337.5,-443.53 334.5,-443.53"/>
<text text-anchor="start" x="279.5" y="-432.33" font-family="Helvetica,sans-Serif" font-size="9.00">rsiStrategy.ts</text>
</a>
</g>
</g>
<!-- src/strategies/entry/index.ts&#45;&gt;src/strategies/entry/rsiStrategy.ts -->
<g id="edge64" class="edge">
<title>src/strategies/entry/index.ts&#45;&gt;src/strategies/entry/rsiStrategy.ts</title>
<path fill="none" stroke="#000000" stroke-width="2" stroke-opacity="0.200000" d="M182.26,-545.26C188.9,-524.61 207.81,-474.65 242,-449.53 248.79,-444.54 256.99,-441.19 265.21,-438.94"/>
<polygon fill="#000000" fill-opacity="0.200000" stroke="#000000" stroke-width="2" stroke-opacity="0.200000" points="266.14,-440.88 271.48,-437.43 265.15,-436.79 266.14,-440.88"/>
</g>
<!-- src/strategies/entry/stochasticRsiStrategy.ts -->
<g id="node46" class="node">
<title>src/strategies/entry/stochasticRsiStrategy.ts</title>
<g id="a_node46"><a xlink:href="src/strategies/entry/stochasticRsiStrategy.ts" xlink:title="stochasticRsiStrategy.ts">
<path fill="#ddfeff" stroke="black" d="M356.5,-473.53C356.5,-473.53 255.5,-473.53 255.5,-473.53 252.5,-473.53 249.5,-470.53 249.5,-467.53 249.5,-467.53 249.5,-461.53 249.5,-461.53 249.5,-458.53 252.5,-455.53 255.5,-455.53 255.5,-455.53 356.5,-455.53 356.5,-455.53 359.5,-455.53 362.5,-458.53 362.5,-461.53 362.5,-461.53 362.5,-467.53 362.5,-467.53 362.5,-470.53 359.5,-473.53 356.5,-473.53"/>
<text text-anchor="start" x="257.5" y="-462.33" font-family="Helvetica,sans-Serif" font-size="9.00">stochasticRsiStrategy.ts</text>
</a>
</g>
</g>
<!-- src/strategies/entry/index.ts&#45;&gt;src/strategies/entry/stochasticRsiStrategy.ts -->
<g id="edge65" class="edge">
<title>src/strategies/entry/index.ts&#45;&gt;src/strategies/entry/stochasticRsiStrategy.ts</title>
<path fill="none" stroke="#000000" stroke-width="2" stroke-opacity="0.200000" d="M184.36,-545.53C193.46,-529.59 214.63,-496.49 242,-479.53 243.98,-478.3 246.05,-477.17 248.19,-476.14"/>
<polygon fill="#000000" fill-opacity="0.200000" stroke="#000000" stroke-width="2" stroke-opacity="0.200000" points="249.32,-477.94 253.97,-473.61 247.64,-474.09 249.32,-477.94"/>
</g>
<!-- src/strategies/entry/volumeOscillatorStrategy.ts -->
<g id="node47" class="node">
<title>src/strategies/entry/volumeOscillatorStrategy.ts</title>
<g id="a_node47"><a xlink:href="src/strategies/entry/volumeOscillatorStrategy.ts" xlink:title="volumeOscillatorStrategy.ts">
<path fill="#ddfeff" stroke="black" d="M364,-503.53C364,-503.53 248,-503.53 248,-503.53 245,-503.53 242,-500.53 242,-497.53 242,-497.53 242,-491.53 242,-491.53 242,-488.53 245,-485.53 248,-485.53 248,-485.53 364,-485.53 364,-485.53 367,-485.53 370,-488.53 370,-491.53 370,-491.53 370,-497.53 370,-497.53 370,-500.53 367,-503.53 364,-503.53"/>
<text text-anchor="start" x="250" y="-492.33" font-family="Helvetica,sans-Serif" font-size="9.00">volumeOscillatorStrategy.ts</text>
</a>
</g>
</g>
<!-- src/strategies/entry/index.ts&#45;&gt;src/strategies/entry/volumeOscillatorStrategy.ts -->
<g id="edge66" class="edge">
<title>src/strategies/entry/index.ts&#45;&gt;src/strategies/entry/volumeOscillatorStrategy.ts</title>
<path fill="none" stroke="#000000" stroke-width="2" stroke-opacity="0.200000" d="M189.76,-545.17C201.53,-534.94 221.82,-518.76 242,-509.53 245.21,-508.06 248.58,-506.73 252.02,-505.52"/>
<polygon fill="#000000" fill-opacity="0.200000" stroke="#000000" stroke-width="2" stroke-opacity="0.200000" points="252.82,-507.46 257.87,-503.6 251.51,-503.47 252.82,-507.46"/>
</g>
<!-- src/strategies/exit/atr.ts -->
<g id="node26" class="node">
<title>src/strategies/exit/atr.ts</title>
<g id="a_node26"><a xlink:href="src/strategies/exit/atr.ts" xlink:title="atr.ts">
<path fill="#ddfeff" stroke="black" d="M327,-653.53C327,-653.53 285,-653.53 285,-653.53 282,-653.53 279,-650.53 279,-647.53 279,-647.53 279,-641.53 279,-641.53 279,-638.53 282,-635.53 285,-635.53 285,-635.53 327,-635.53 327,-635.53 330,-635.53 333,-638.53 333,-641.53 333,-641.53 333,-647.53 333,-647.53 333,-650.53 330,-653.53 327,-653.53"/>
<text text-anchor="start" x="296" y="-642.33" font-family="Helvetica,sans-Serif" font-size="9.00">atr.ts</text>
</a>
</g>
</g>
<!-- src/strategies/exit/index.ts&#45;&gt;src/strategies/exit/atr.ts -->
<g id="edge73" class="edge">
<title>src/strategies/exit/index.ts&#45;&gt;src/strategies/exit/atr.ts</title>
<path fill="none" stroke="#000000" stroke-width="2" stroke-opacity="0.200000" d="M205.65,-668.24C216.84,-665.55 230.06,-662.38 242,-659.53 252.05,-657.12 263.01,-654.51 272.92,-652.15"/>
<polygon fill="#000000" fill-opacity="0.200000" stroke="#000000" stroke-width="2" stroke-opacity="0.200000" points="273.59,-654.15 278.94,-650.72 272.62,-650.07 273.59,-654.15"/>
</g>
<!-- src/strategies/exit/basic.ts -->
<g id="node48" class="node">
<title>src/strategies/exit/basic.ts</title>
<g id="a_node48"><a xlink:href="src/strategies/exit/basic.ts" xlink:title="basic.ts">
<path fill="#ddfeff" stroke="black" d="M327,-713.53C327,-713.53 285,-713.53 285,-713.53 282,-713.53 279,-710.53 279,-707.53 279,-707.53 279,-701.53 279,-701.53 279,-698.53 282,-695.53 285,-695.53 285,-695.53 327,-695.53 327,-695.53 330,-695.53 333,-698.53 333,-701.53 333,-701.53 333,-707.53 333,-707.53 333,-710.53 330,-713.53 327,-713.53"/>
<text text-anchor="start" x="290.5" y="-702.33" font-family="Helvetica,sans-Serif" font-size="9.00">basic.ts</text>
</a>
</g>
</g>
<!-- src/strategies/exit/index.ts&#45;&gt;src/strategies/exit/basic.ts -->
<g id="edge74" class="edge">
<title>src/strategies/exit/index.ts&#45;&gt;src/strategies/exit/basic.ts</title>
<path fill="none" stroke="#000000" stroke-width="2" stroke-opacity="0.200000" d="M205.65,-680.81C216.84,-683.5 230.06,-686.67 242,-689.53 252.05,-691.93 263.01,-694.54 272.92,-696.9"/>
<polygon fill="#000000" fill-opacity="0.200000" stroke="#000000" stroke-width="2" stroke-opacity="0.200000" points="272.62,-698.99 278.94,-698.33 273.59,-694.9 272.62,-698.99"/>
</g>
<!-- src/strategies/exit/fibonacci.ts -->
<g id="node49" class="node">
<title>src/strategies/exit/fibonacci.ts</title>
<g id="a_node49"><a xlink:href="src/strategies/exit/fibonacci.ts" xlink:title="fibonacci.ts">
<path fill="#ddfeff" stroke="black" d="M331,-683.53C331,-683.53 281,-683.53 281,-683.53 278,-683.53 275,-680.53 275,-677.53 275,-677.53 275,-671.53 275,-671.53 275,-668.53 278,-665.53 281,-665.53 281,-665.53 331,-665.53 331,-665.53 334,-665.53 337,-668.53 337,-671.53 337,-671.53 337,-677.53 337,-677.53 337,-680.53 334,-683.53 331,-683.53"/>
<text text-anchor="start" x="283" y="-672.33" font-family="Helvetica,sans-Serif" font-size="9.00">fibonacci.ts</text>
</a>
</g>
</g>
<!-- src/strategies/exit/index.ts&#45;&gt;src/strategies/exit/fibonacci.ts -->
<g id="edge75" class="edge">
<title>src/strategies/exit/index.ts&#45;&gt;src/strategies/exit/fibonacci.ts</title>
<path fill="none" stroke="#000000" stroke-width="2" stroke-opacity="0.200000" d="M205.5,-674.53C223.72,-674.53 248.32,-674.53 268.5,-674.53"/>
<polygon fill="#000000" fill-opacity="0.200000" stroke="#000000" stroke-width="2" stroke-opacity="0.200000" points="268.61,-676.63 274.61,-674.53 268.61,-672.43 268.61,-676.63"/>
</g>
<!-- src/strategies/riskManagement.ts&#45;&gt;src/init.ts -->
<g id="edge76" class="edge">
<title>src/strategies/riskManagement.ts&#45;&gt;src/init.ts</title>
<path fill="none" stroke="#000000" stroke-width="2" stroke-opacity="0.200000" d="M225.29,-765.78C226.64,-766.9 227.88,-768.15 229,-769.53 248.93,-794.18 219.93,-1031.77 242,-1054.53 253.17,-1066.05 370.12,-1063.25 386,-1065.53 389.27,-1066 392.66,-1066.57 396.04,-1067.19"/>
<polygon fill="#000000" fill-opacity="0.200000" stroke="#000000" stroke-width="2" stroke-opacity="0.200000" points="395.78,-1069.28 402.07,-1068.36 396.58,-1065.16 395.78,-1069.28"/>
</g>
<!-- src/strategies/riskManagement.ts&#45;&gt;src/utils/currencyInfo.ts -->
<g id="edge77" class="edge">
<title>src/strategies/riskManagement.ts&#45;&gt;src/utils/currencyInfo.ts</title>
<path fill="none" stroke="#000000" stroke-width="2" stroke-opacity="0.200000" d="M223.2,-765.66C225.25,-766.8 227.2,-768.09 229,-769.53 238.78,-777.34 233.64,-785.2 242,-794.53 252.98,-806.77 268.28,-817.08 281.05,-824.42"/>
<polygon fill="#000000" fill-opacity="0.200000" stroke="#000000" stroke-width="2" stroke-opacity="0.200000" points="280.09,-826.29 286.35,-827.38 282.14,-822.62 280.09,-826.29"/>
</g>
<!-- src/strategies/riskManagement.ts&#45;&gt;src/utils/math.ts -->
<g id="edge78" class="edge">
<title>src/strategies/riskManagement.ts&#45;&gt;src/utils/math.ts</title>
<path fill="none" stroke="#000000" stroke-width="2" stroke-opacity="0.200000" d="M225.89,-750.49C270.07,-747.06 336.93,-748.07 386,-776.53 403.59,-786.73 415.74,-807.45 422.41,-821.67"/>
<polygon fill="#000000" fill-opacity="0.200000" stroke="#000000" stroke-width="2" stroke-opacity="0.200000" points="420.57,-822.69 424.94,-827.31 424.4,-820.97 420.57,-822.69"/>
</g>
<!-- src/configs/rsi&#45;dca.ts -->
<g id="node24" class="node">
<title>src/configs/rsi&#45;dca.ts</title>
<g id="a_node24"><a xlink:href="src/configs/rsi-dca.ts" xlink:title="rsi&#45;dca.ts">
<path fill="#ddfeff" stroke="black" d="M85,-653.53C85,-653.53 43,-653.53 43,-653.53 40,-653.53 37,-650.53 37,-647.53 37,-647.53 37,-641.53 37,-641.53 37,-638.53 40,-635.53 43,-635.53 43,-635.53 85,-635.53 85,-635.53 88,-635.53 91,-638.53 91,-641.53 91,-641.53 91,-647.53 91,-647.53 91,-650.53 88,-653.53 85,-653.53"/>
<text text-anchor="start" x="45.5" y="-642.33" font-family="Helvetica,sans-Serif" font-size="9.00">rsi&#45;dca.ts</text>
</a>
</g>
</g>
<!-- src/configs/rsi&#45;dca.ts&#45;&gt;src/strategies/entry/index.ts -->
<g id="edge30" class="edge">
<title>src/configs/rsi&#45;dca.ts&#45;&gt;src/strategies/entry/index.ts</title>
<path fill="none" stroke="#000000" stroke-width="2" stroke-opacity="0.200000" d="M91.02,-638.97C98.18,-636.73 105.7,-633.66 112,-629.53 136.41,-613.5 157.12,-585.97 168.39,-569.1"/>
<polygon fill="#000000" fill-opacity="0.200000" stroke="#000000" stroke-width="2" stroke-opacity="0.200000" points="170.32,-569.99 171.84,-563.82 166.8,-567.69 170.32,-569.99"/>
</g>
<!-- src/configs/rsi&#45;dca.ts&#45;&gt;src/strategies/exit/index.ts -->
<g id="edge31" class="edge">
<title>src/configs/rsi&#45;dca.ts&#45;&gt;src/strategies/exit/index.ts</title>
<path fill="none" stroke="#000000" stroke-width="2" stroke-opacity="0.200000" d="M91,-651.68C100.16,-654.19 110.53,-657 120,-659.53 128.18,-661.71 137.03,-664.03 145.27,-666.19"/>
<polygon fill="#000000" fill-opacity="0.200000" stroke="#000000" stroke-width="2" stroke-opacity="0.200000" points="145.1,-668.31 151.44,-667.79 146.16,-664.25 145.1,-668.31"/>
</g>
<!-- src/configs/rsi&#45;dca.ts&#45;&gt;src/strategies/riskManagement.ts -->
<g id="edge32" class="edge">
<title>src/configs/rsi&#45;dca.ts&#45;&gt;src/strategies/riskManagement.ts</title>
<path fill="none" stroke="#000000" stroke-width="2" stroke-opacity="0.200000" d="M91.08,-647.28C98.94,-649.42 106.84,-653.13 112,-659.53 123.64,-673.95 107.87,-728.52 120,-742.53 121.78,-744.58 123.8,-746.36 126,-747.9"/>
<polygon fill="#000000" fill-opacity="0.200000" stroke="#000000" stroke-width="2" stroke-opacity="0.200000" points="125.19,-749.85 131.43,-751.07 127.31,-746.23 125.19,-749.85"/>
</g>
<!-- src/configs/rsi.ts -->
<g id="node25" class="node">
<title>src/configs/rsi.ts</title>
<g id="a_node25"><a xlink:href="src/configs/rsi.ts" xlink:title="rsi.ts">
<path fill="#ddfeff" stroke="black" d="M85,-593.53C85,-593.53 43,-593.53 43,-593.53 40,-593.53 37,-590.53 37,-587.53 37,-587.53 37,-581.53 37,-581.53 37,-578.53 40,-575.53 43,-575.53 43,-575.53 85,-575.53 85,-575.53 88,-575.53 91,-578.53 91,-581.53 91,-581.53 91,-587.53 91,-587.53 91,-590.53 88,-593.53 85,-593.53"/>
<text text-anchor="start" x="54.5" y="-582.33" font-family="Helvetica,sans-Serif" font-size="9.00">rsi.ts</text>
</a>
</g>
</g>
<!-- src/configs/rsi.ts&#45;&gt;src/strategies/entry/index.ts -->
<g id="edge33" class="edge">
<title>src/configs/rsi.ts&#45;&gt;src/strategies/entry/index.ts</title>
<path fill="none" stroke="#000000" stroke-width="2" stroke-opacity="0.200000" d="M91.09,-577.57C107.16,-573.28 127.9,-567.75 145.03,-563.19"/>
<polygon fill="#000000" fill-opacity="0.200000" stroke="#000000" stroke-width="2" stroke-opacity="0.200000" points="145.9,-565.13 151.16,-561.55 144.82,-561.07 145.9,-565.13"/>
</g>
<!-- src/configs/rsi.ts&#45;&gt;src/strategies/riskManagement.ts -->
<g id="edge35" class="edge">
<title>src/configs/rsi.ts&#45;&gt;src/strategies/riskManagement.ts</title>
<path fill="none" stroke="#000000" stroke-width="2" stroke-opacity="0.200000" d="M91.23,-587.16C99.1,-589.29 106.97,-593.03 112,-599.53 131.49,-624.69 99.64,-718.06 120,-742.53 121.74,-744.62 123.73,-746.42 125.9,-747.98"/>
<polygon fill="#000000" fill-opacity="0.200000" stroke="#000000" stroke-width="2" stroke-opacity="0.200000" points="125.05,-749.92 131.28,-751.19 127.2,-746.31 125.05,-749.92"/>
</g>
<!-- src/configs/rsi.ts&#45;&gt;src/strategies/exit/atr.ts -->
<g id="edge34" class="edge">
<title>src/configs/rsi.ts&#45;&gt;src/strategies/exit/atr.ts</title>
<path fill="none" stroke="#000000" stroke-width="2" stroke-opacity="0.200000" d="M91.36,-581.99C99.24,-579.87 107.08,-576.11 112,-569.53 124.18,-553.24 105.46,-217.75 120,-203.53 137.31,-186.59 211.61,-186.67 229,-203.53 262.44,-235.95 214.45,-584.97 242,-622.53 249.24,-632.39 261.22,-637.86 272.81,-640.88"/>
<polygon fill="#000000" fill-opacity="0.200000" stroke="#000000" stroke-width="2" stroke-opacity="0.200000" points="272.48,-642.96 278.8,-642.25 273.42,-638.87 272.48,-642.96"/>
</g>
<!-- src/strategies/exit/atr.ts&#45;&gt;src/utils/math.ts -->
<g id="edge69" class="edge">
<title>src/strategies/exit/atr.ts&#45;&gt;src/utils/math.ts</title>
<path fill="none" stroke="#000000" stroke-width="2" stroke-opacity="0.200000" d="M333.37,-642.68C350.5,-642.96 372.16,-646.33 386,-659.53 409.46,-681.89 422.61,-782.06 426.91,-820.99"/>
<polygon fill="#000000" fill-opacity="0.200000" stroke="#000000" stroke-width="2" stroke-opacity="0.200000" points="424.84,-821.36 427.57,-827.1 429.02,-820.91 424.84,-821.36"/>
</g>
<!-- src/configs/shad.ts -->
<g id="node27" class="node">
<title>src/configs/shad.ts</title>
<g id="a_node27"><a xlink:href="src/configs/shad.ts" xlink:title="shad.ts">
<path fill="#ddfeff" stroke="black" d="M85,-623.53C85,-623.53 43,-623.53 43,-623.53 40,-623.53 37,-620.53 37,-617.53 37,-617.53 37,-611.53 37,-611.53 37,-608.53 40,-605.53 43,-605.53 43,-605.53 85,-605.53 85,-605.53 88,-605.53 91,-608.53 91,-611.53 91,-611.53 91,-617.53 91,-617.53 91,-620.53 88,-623.53 85,-623.53"/>
<text text-anchor="start" x="49" y="-612.33" font-family="Helvetica,sans-Serif" font-size="9.00">shad.ts</text>
</a>
</g>
</g>
<!-- src/configs/shad.ts&#45;&gt;src/indicators/index.ts -->
<g id="edge36" class="edge">
<title>src/configs/shad.ts&#45;&gt;src/indicators/index.ts</title>
<path fill="none" stroke="#000000" stroke-width="2" stroke-opacity="0.200000" d="M91.37,-612C99.24,-609.87 107.08,-606.12 112,-599.53 125.26,-581.76 104.17,-216.05 120,-200.53 206.84,-115.41 315.35,-165.56 386,-264.53 404.36,-290.25 380.09,-378.15 394,-406.53 397.21,-413.08 402.56,-418.79 408.1,-423.42"/>
<polygon fill="#000000" fill-opacity="0.200000" stroke="#000000" stroke-width="2" stroke-opacity="0.200000" points="407.16,-425.35 413.18,-427.36 409.73,-422.03 407.16,-425.35"/>
</g>
<!-- src/configs/shad.ts&#45;&gt;src/strategies/entry/index.ts -->
<g id="edge37" class="edge">
<title>src/configs/shad.ts&#45;&gt;src/strategies/entry/index.ts</title>
<path fill="none" stroke="#000000" stroke-width="2" stroke-opacity="0.200000" d="M91.39,-607.6C98.26,-605.39 105.54,-602.69 112,-599.53 130.16,-590.63 148.99,-577.18 161.78,-567.29"/>
<polygon fill="#000000" fill-opacity="0.200000" stroke="#000000" stroke-width="2" stroke-opacity="0.200000" points="163.1,-568.92 166.53,-563.57 160.51,-565.61 163.1,-568.92"/>
</g>
<!-- src/configs/shad.ts&#45;&gt;src/strategies/exit/index.ts -->
<g id="edge38" class="edge">
<title>src/configs/shad.ts&#45;&gt;src/strategies/exit/index.ts</title>
<path fill="none" stroke="#000000" stroke-width="2" stroke-opacity="0.200000" d="M91.46,-618.08C98.97,-620.28 106.56,-623.82 112,-629.53 121.52,-639.52 110.22,-649.8 120,-659.53 126.78,-666.27 136.19,-670.1 145.43,-672.24"/>
<polygon fill="#000000" fill-opacity="0.200000" stroke="#000000" stroke-width="2" stroke-opacity="0.200000" points="145.17,-674.32 151.46,-673.41 145.97,-670.2 145.17,-674.32"/>
</g>
<!-- src/configs/shad.ts&#45;&gt;src/strategies/riskManagement.ts -->
<g id="edge39" class="edge">
<title>src/configs/shad.ts&#45;&gt;src/strategies/riskManagement.ts</title>
<path fill="none" stroke="#000000" stroke-width="2" stroke-opacity="0.200000" d="M91.17,-617.21C99.04,-619.34 106.92,-623.06 112,-629.53 127.56,-649.32 103.76,-723.29 120,-742.53 121.75,-744.6 123.76,-746.4 125.94,-747.95"/>
<polygon fill="#000000" fill-opacity="0.200000" stroke="#000000" stroke-width="2" stroke-opacity="0.200000" points="125.1,-749.89 131.33,-751.15 127.24,-746.28 125.1,-749.89"/>
</g>
<!-- src/configs/stochasticRsi.ts -->
<g id="node28" class="node">
<title>src/configs/stochasticRsi.ts</title>
<g id="a_node28"><a xlink:href="src/configs/stochasticRsi.ts" xlink:title="stochasticRsi.ts">
<path fill="#ddfeff" stroke="black" d="M98,-533.53C98,-533.53 30,-533.53 30,-533.53 27,-533.53 24,-530.53 24,-527.53 24,-527.53 24,-521.53 24,-521.53 24,-518.53 27,-515.53 30,-515.53 30,-515.53 98,-515.53 98,-515.53 101,-515.53 104,-518.53 104,-521.53 104,-521.53 104,-527.53 104,-527.53 104,-530.53 101,-533.53 98,-533.53"/>
<text text-anchor="start" x="32" y="-522.33" font-family="Helvetica,sans-Serif" font-size="9.00">stochasticRsi.ts</text>
</a>
</g>
</g>
<!-- src/configs/stochasticRsi.ts&#45;&gt;src/strategies/entry/index.ts -->
<g id="edge40" class="edge">
<title>src/configs/stochasticRsi.ts&#45;&gt;src/strategies/entry/index.ts</title>
<path fill="none" stroke="#000000" stroke-width="2" stroke-opacity="0.200000" d="M98.75,-533.53C113.48,-537.45 130.66,-542.04 145.22,-545.92"/>
<polygon fill="#000000" fill-opacity="0.200000" stroke="#000000" stroke-width="2" stroke-opacity="0.200000" points="144.94,-548.02 151.28,-547.53 146.02,-543.96 144.94,-548.02"/>
</g>
<!-- src/configs/stochasticRsi.ts&#45;&gt;src/strategies/riskManagement.ts -->
<g id="edge42" class="edge">
<title>src/configs/stochasticRsi.ts&#45;&gt;src/strategies/riskManagement.ts</title>
<path fill="none" stroke="#000000" stroke-width="2" stroke-opacity="0.200000" d="M104.05,-532.45C107.09,-534.34 109.82,-536.66 112,-539.53 125.67,-557.49 105.71,-725.06 120,-742.53 121.76,-744.67 123.78,-746.52 126,-748.12"/>
<polygon fill="#000000" fill-opacity="0.200000" stroke="#000000" stroke-width="2" stroke-opacity="0.200000" points="125.26,-750.12 131.49,-751.38 127.41,-746.51 125.26,-750.12"/>
</g>
<!-- src/configs/stochasticRsi.ts&#45;&gt;src/strategies/exit/atr.ts -->
<g id="edge41" class="edge">
<title>src/configs/stochasticRsi.ts&#45;&gt;src/strategies/exit/atr.ts</title>
<path fill="none" stroke="#000000" stroke-width="2" stroke-opacity="0.200000" d="M64.92,-515.22C64.73,-464.42 66.61,-221.16 120,-175.53 156.83,-144.05 194.25,-141.77 229,-175.53 246.82,-192.84 227.32,-602.48 242,-622.53 249.23,-632.4 261.21,-637.87 272.8,-640.89"/>
<polygon fill="#000000" fill-opacity="0.200000" stroke="#000000" stroke-width="2" stroke-opacity="0.200000" points="272.48,-642.97 278.79,-642.26 273.41,-638.88 272.48,-642.97"/>
</g>
<!-- src/strategies/trend/index.ts -->
<g id="node29" class="node">
<title>src/strategies/trend/index.ts</title>
<g id="a_node29"><a xlink:href="src/strategies/trend/index.ts" xlink:title="index.ts">
<path fill="#ddfeff" stroke="black" d="M199.5,-353.53C199.5,-353.53 157.5,-353.53 157.5,-353.53 154.5,-353.53 151.5,-350.53 151.5,-347.53 151.5,-347.53 151.5,-341.53 151.5,-341.53 151.5,-338.53 154.5,-335.53 157.5,-335.53 157.5,-335.53 199.5,-335.53 199.5,-335.53 202.5,-335.53 205.5,-338.53 205.5,-341.53 205.5,-341.53 205.5,-347.53 205.5,-347.53 205.5,-350.53 202.5,-353.53 199.5,-353.53"/>
<text text-anchor="start" x="162.5" y="-342.33" font-family="Helvetica,sans-Serif" font-size="9.00">index.ts</text>
</a>
</g>
</g>
<!-- src/configs/stochasticRsi.ts&#45;&gt;src/strategies/trend/index.ts -->
<g id="edge43" class="edge">
<title>src/configs/stochasticRsi.ts&#45;&gt;src/strategies/trend/index.ts</title>
<path fill="none" stroke="#000000" stroke-width="2" stroke-opacity="0.200000" d="M66.66,-515.42C71.36,-491.67 86.65,-426.74 120,-384.53 129.01,-373.13 142.13,-363.66 153.56,-356.8"/>
<polygon fill="#000000" fill-opacity="0.200000" stroke="#000000" stroke-width="2" stroke-opacity="0.200000" points="154.87,-358.47 159.01,-353.64 152.77,-354.83 154.87,-358.47"/>
</g>
<!-- src/strategies/trend/ema200.ts -->
<g id="node52" class="node">
<title>src/strategies/trend/ema200.ts</title>
<g id="a_node52"><a xlink:href="src/strategies/trend/ema200.ts" xlink:title="ema200.ts">
<path fill="#ddfeff" stroke="black" d="M329.5,-293.53C329.5,-293.53 282.5,-293.53 282.5,-293.53 279.5,-293.53 276.5,-290.53 276.5,-287.53 276.5,-287.53 276.5,-281.53 276.5,-281.53 276.5,-278.53 279.5,-275.53 282.5,-275.53 282.5,-275.53 329.5,-275.53 329.5,-275.53 332.5,-275.53 335.5,-278.53 335.5,-281.53 335.5,-281.53 335.5,-287.53 335.5,-287.53 335.5,-290.53 332.5,-293.53 329.5,-293.53"/>
<text text-anchor="start" x="284.5" y="-282.33" font-family="Helvetica,sans-Serif" font-size="9.00">ema200.ts</text>
</a>
</g>
</g>
<!-- src/strategies/trend/index.ts&#45;&gt;src/strategies/trend/ema200.ts -->
<g id="edge79" class="edge">
<title>src/strategies/trend/index.ts&#45;&gt;src/strategies/trend/ema200.ts</title>
<path fill="none" stroke="#000000" stroke-width="2" stroke-opacity="0.200000" d="M205.57,-342.3C213.85,-340.46 222.53,-337.22 229,-331.53 240.53,-321.39 230.35,-309.53 242,-299.53 249.84,-292.8 260.18,-288.96 270.2,-286.82"/>
<polygon fill="#000000" fill-opacity="0.200000" stroke="#000000" stroke-width="2" stroke-opacity="0.200000" points="270.85,-288.83 276.38,-285.69 270.1,-284.7 270.85,-288.83"/>
</g>
<!-- src/strategies/trend/supertrend.ts -->
<g id="node53" class="node">
<title>src/strategies/trend/supertrend.ts</title>
<g id="a_node53"><a xlink:href="src/strategies/trend/supertrend.ts" xlink:title="supertrend.ts">
<path fill="#ddfeff" stroke="black" d="M335,-323.53C335,-323.53 277,-323.53 277,-323.53 274,-323.53 271,-320.53 271,-317.53 271,-317.53 271,-311.53 271,-311.53 271,-308.53 274,-305.53 277,-305.53 277,-305.53 335,-305.53 335,-305.53 338,-305.53 341,-308.53 341,-311.53 341,-311.53 341,-317.53 341,-317.53 341,-320.53 338,-323.53 335,-323.53"/>
<text text-anchor="start" x="279" y="-312.33" font-family="Helvetica,sans-Serif" font-size="9.00">supertrend.ts</text>
</a>
</g>
</g>
<!-- src/strategies/trend/index.ts&#45;&gt;src/strategies/trend/supertrend.ts -->
<g id="edge80" class="edge">
<title>src/strategies/trend/index.ts&#45;&gt;src/strategies/trend/supertrend.ts</title>
<path fill="none" stroke="#000000" stroke-width="2" stroke-opacity="0.200000" d="M205.65,-338.24C216.84,-335.55 230.06,-332.38 242,-329.53 249.35,-327.77 257.18,-325.9 264.73,-324.1"/>
<polygon fill="#000000" fill-opacity="0.200000" stroke="#000000" stroke-width="2" stroke-opacity="0.200000" points="265.64,-326.05 270.99,-322.61 264.67,-321.96 265.64,-326.05"/>
</g>
<!-- src/strategies/trend/threeEma.ts -->
<g id="node54" class="node">
<title>src/strategies/trend/threeEma.ts</title>
<g id="a_node54"><a xlink:href="src/strategies/trend/threeEma.ts" xlink:title="threeEma.ts">
<path fill="#ddfeff" stroke="black" d="M332.5,-353.53C332.5,-353.53 279.5,-353.53 279.5,-353.53 276.5,-353.53 273.5,-350.53 273.5,-347.53 273.5,-347.53 273.5,-341.53 273.5,-341.53 273.5,-338.53 276.5,-335.53 279.5,-335.53 279.5,-335.53 332.5,-335.53 332.5,-335.53 335.5,-335.53 338.5,-338.53 338.5,-341.53 338.5,-341.53 338.5,-347.53 338.5,-347.53 338.5,-350.53 335.5,-353.53 332.5,-353.53"/>
<text text-anchor="start" x="281.5" y="-342.33" font-family="Helvetica,sans-Serif" font-size="9.00">threeEma.ts</text>
</a>
</g>
</g>
<!-- src/strategies/trend/index.ts&#45;&gt;src/strategies/trend/threeEma.ts -->
<g id="edge81" class="edge">
<title>src/strategies/trend/index.ts&#45;&gt;src/strategies/trend/threeEma.ts</title>
<path fill="none" stroke="#000000" stroke-width="2" stroke-opacity="0.200000" d="M205.5,-344.53C223.33,-344.53 247.27,-344.53 267.2,-344.53"/>
<polygon fill="#000000" fill-opacity="0.200000" stroke="#000000" stroke-width="2" stroke-opacity="0.200000" points="267.24,-346.63 273.24,-344.53 267.24,-342.43 267.24,-346.63"/>
</g>
<!-- src/configs/volume.ts -->
<g id="node30" class="node">
<title>src/configs/volume.ts</title>
<g id="a_node30"><a xlink:href="src/configs/volume.ts" xlink:title="volume.ts">
<path fill="#ddfeff" stroke="black" d="M86,-563.53C86,-563.53 42,-563.53 42,-563.53 39,-563.53 36,-560.53 36,-557.53 36,-557.53 36,-551.53 36,-551.53 36,-548.53 39,-545.53 42,-545.53 42,-545.53 86,-545.53 86,-545.53 89,-545.53 92,-548.53 92,-551.53 92,-551.53 92,-557.53 92,-557.53 92,-560.53 89,-563.53 86,-563.53"/>
<text text-anchor="start" x="44" y="-552.33" font-family="Helvetica,sans-Serif" font-size="9.00">volume.ts</text>
</a>
</g>
</g>
<!-- src/configs/volume.ts&#45;&gt;src/strategies/entry/index.ts -->
<g id="edge44" class="edge">
<title>src/configs/volume.ts&#45;&gt;src/strategies/entry/index.ts</title>
<path fill="none" stroke="#000000" stroke-width="2" stroke-opacity="0.200000" d="M92.23,-554.53C108.22,-554.53 128.51,-554.53 145.28,-554.53"/>
<polygon fill="#000000" fill-opacity="0.200000" stroke="#000000" stroke-width="2" stroke-opacity="0.200000" points="145.29,-556.63 151.29,-554.53 145.29,-552.43 145.29,-556.63"/>
</g>
<!-- src/configs/volume.ts&#45;&gt;src/strategies/riskManagement.ts -->
<g id="edge46" class="edge">
<title>src/configs/volume.ts&#45;&gt;src/strategies/riskManagement.ts</title>
<path fill="none" stroke="#000000" stroke-width="2" stroke-opacity="0.200000" d="M92.25,-557.41C99.79,-559.58 107.21,-563.27 112,-569.53 123.71,-584.8 107.76,-727.68 120,-742.53 121.73,-744.62 123.71,-746.44 125.88,-748"/>
<polygon fill="#000000" fill-opacity="0.200000" stroke="#000000" stroke-width="2" stroke-opacity="0.200000" points="125.02,-749.93 131.24,-751.22 127.18,-746.33 125.02,-749.93"/>
</g>
<!-- src/configs/volume.ts&#45;&gt;src/strategies/exit/atr.ts -->
<g id="edge45" class="edge">
<title>src/configs/volume.ts&#45;&gt;src/strategies/exit/atr.ts</title>
<path fill="none" stroke="#000000" stroke-width="2" stroke-opacity="0.200000" d="M92.34,-551.71C99.88,-549.55 107.28,-545.84 112,-539.53 123.65,-523.95 106.09,-203.12 120,-189.53 137.32,-172.6 211.62,-172.66 229,-189.53 263.54,-223.05 213.55,-583.7 242,-622.53 249.23,-632.39 261.22,-637.86 272.8,-640.89"/>
<polygon fill="#000000" fill-opacity="0.200000" stroke="#000000" stroke-width="2" stroke-opacity="0.200000" points="272.48,-642.97 278.8,-642.25 273.41,-638.87 272.48,-642.97"/>
</g>
<!-- src/configs/volume.ts&#45;&gt;src/strategies/trend/index.ts -->
<g id="edge47" class="edge">
<title>src/configs/volume.ts&#45;&gt;src/strategies/trend/index.ts</title>
<path fill="none" stroke="#000000" stroke-width="2" stroke-opacity="0.200000" d="M92.23,-551.63C99.77,-549.46 107.19,-545.77 112,-539.53 133.06,-512.21 103.24,-414.67 120,-384.53 126.75,-372.38 138.94,-363.1 150.36,-356.56"/>
<polygon fill="#000000" fill-opacity="0.200000" stroke="#000000" stroke-width="2" stroke-opacity="0.200000" points="151.6,-358.27 155.88,-353.57 149.6,-354.58 151.6,-358.27"/>
</g>
<!-- src/index.ts -->
<g id="node31" class="node">
<title>src/index.ts</title>
<g id="a_node31"><a xlink:href="src/index.ts" xlink:title="index.ts">
<path fill="#ddfeff" stroke="black" d="M85,-1039.53C85,-1039.53 43,-1039.53 43,-1039.53 40,-1039.53 37,-1036.53 37,-1033.53 37,-1033.53 37,-1027.53 37,-1027.53 37,-1024.53 40,-1021.53 43,-1021.53 43,-1021.53 85,-1021.53 85,-1021.53 88,-1021.53 91,-1024.53 91,-1027.53 91,-1027.53 91,-1033.53 91,-1033.53 91,-1036.53 88,-1039.53 85,-1039.53"/>
<text text-anchor="start" x="48" y="-1028.33" font-family="Helvetica,sans-Serif" font-size="9.00">index.ts</text>
</a>
</g>
</g>
<!-- src/index.ts&#45;&gt;src/init.ts -->
<g id="edge49" class="edge">
<title>src/index.ts&#45;&gt;src/init.ts</title>
<path fill="none" stroke="#000000" stroke-width="2" stroke-opacity="0.200000" d="M75.19,-1039.63C100.88,-1061.88 171.3,-1118.66 242,-1138.53 303.61,-1155.84 329.6,-1168.78 386,-1138.53 405.3,-1128.18 417.33,-1104.77 423.47,-1089.32"/>
<polygon fill="#000000" fill-opacity="0.200000" stroke="#000000" stroke-width="2" stroke-opacity="0.200000" points="425.46,-1089.99 425.61,-1083.64 421.53,-1088.51 425.46,-1089.99"/>
</g>
<!-- src/index.ts&#45;&gt;src/bot.ts -->
<g id="edge48" class="edge">
<title>src/index.ts&#45;&gt;src/bot.ts</title>
<path fill="none" stroke="#000000" stroke-width="2" stroke-opacity="0.200000" d="M73.83,-1021.19C93.54,-1000.33 141.24,-949.88 164.42,-925.36"/>
<polygon fill="#000000" fill-opacity="0.200000" stroke="#000000" stroke-width="2" stroke-opacity="0.200000" points="166.12,-926.62 168.71,-920.82 163.07,-923.74 166.12,-926.62"/>
</g>
<!-- src/indicators/types.d.ts -->
<g id="node36" class="node">
<title>src/indicators/types.d.ts</title>
<g id="a_node36"><a xlink:href="src/indicators/types.d.ts" xlink:title="types.d.ts">
<path fill="#ccffcc" stroke="black" d="M451,-400.53C451,-400.53 408,-400.53 408,-400.53 405,-400.53 402,-397.53 402,-394.53 402,-394.53 402,-388.53 402,-388.53 402,-385.53 405,-382.53 408,-382.53 408,-382.53 451,-382.53 451,-382.53 454,-382.53 457,-385.53 457,-388.53 457,-388.53 457,-394.53 457,-394.53 457,-397.53 454,-400.53 451,-400.53"/>
<text text-anchor="start" x="410" y="-389.33" font-family="Helvetica,sans-Serif" font-size="9.00">types.d.ts</text>
</a>
</g>
</g>
<!-- src/patterns/candles/engulfing.ts -->
<g id="node38" class="node">
<title>src/patterns/candles/engulfing.ts</title>
<g id="a_node38"><a xlink:href="src/patterns/candles/engulfing.ts" xlink:title="engulfing.ts">
<path fill="#ddfeff" stroke="black" d="M204.5,-95.53C204.5,-95.53 152.5,-95.53 152.5,-95.53 149.5,-95.53 146.5,-92.53 146.5,-89.53 146.5,-89.53 146.5,-83.53 146.5,-83.53 146.5,-80.53 149.5,-77.53 152.5,-77.53 152.5,-77.53 204.5,-77.53 204.5,-77.53 207.5,-77.53 210.5,-80.53 210.5,-83.53 210.5,-83.53 210.5,-89.53 210.5,-89.53 210.5,-92.53 207.5,-95.53 204.5,-95.53"/>
<text text-anchor="start" x="154.5" y="-84.33" font-family="Helvetica,sans-Serif" font-size="9.00">engulfing.ts</text>
</a>
</g>
</g>
<!-- src/patterns/index.ts -->
<g id="node39" class="node">
<title>src/patterns/index.ts</title>
<g id="a_node39"><a xlink:href="src/patterns/index.ts" xlink:title="index.ts">
<path fill="#ddfeff" stroke="black" d="M85,-95.53C85,-95.53 43,-95.53 43,-95.53 40,-95.53 37,-92.53 37,-89.53 37,-89.53 37,-83.53 37,-83.53 37,-80.53 40,-77.53 43,-77.53 43,-77.53 85,-77.53 85,-77.53 88,-77.53 91,-80.53 91,-83.53 91,-83.53 91,-89.53 91,-89.53 91,-92.53 88,-95.53 85,-95.53"/>
<text text-anchor="start" x="48" y="-84.33" font-family="Helvetica,sans-Serif" font-size="9.00">index.ts</text>
</a>
</g>
</g>
<!-- src/patterns/index.ts&#45;&gt;src/patterns/candles/engulfing.ts -->
<g id="edge57" class="edge">
<title>src/patterns/index.ts&#45;&gt;src/patterns/candles/engulfing.ts</title>
<path fill="none" stroke="#000000" stroke-width="2" stroke-opacity="0.200000" d="M91.09,-86.53C105.65,-86.53 124.03,-86.53 140.09,-86.53"/>
<polygon fill="#000000" fill-opacity="0.200000" stroke="#000000" stroke-width="2" stroke-opacity="0.200000" points="140.35,-88.63 146.35,-86.53 140.35,-84.43 140.35,-88.63"/>
</g>
<!-- src/server.ts -->
<g id="node40" class="node">
<title>src/server.ts</title>
<g id="a_node40"><a xlink:href="src/server.ts" xlink:title="server.ts">
<path fill="#ddfeff" stroke="black" d="M85,-939.53C85,-939.53 43,-939.53 43,-939.53 40,-939.53 37,-936.53 37,-933.53 37,-933.53 37,-927.53 37,-927.53 37,-924.53 40,-921.53 43,-921.53 43,-921.53 85,-921.53 85,-921.53 88,-921.53 91,-924.53 91,-927.53 91,-927.53 91,-933.53 91,-933.53 91,-936.53 88,-939.53 85,-939.53"/>
<text text-anchor="start" x="46.5" y="-928.33" font-family="Helvetica,sans-Serif" font-size="9.00">server.ts</text>
</a>
</g>
</g>
<!-- src/server.ts&#45;&gt;fs -->
<g id="edge58" class="edge">
<title>src/server.ts&#45;&gt;fs</title>
<path fill="none" stroke="#000000" stroke-dasharray="5,2" stroke-opacity="0.200000" d="M67.63,-921.5C76.11,-891.88 102.71,-794.86 112,-712.53 114.01,-694.69 107.71,-79.61 120,-66.53 216.21,35.91 409.65,-4.97 486.23,-26.51"/>
<polygon fill="#000000" fill-opacity="0.200000" stroke="#000000" stroke-opacity="0.200000" points="486.06,-28.65 492.4,-28.28 487.21,-24.61 486.06,-28.65"/>
</g>
<!-- src/server.ts&#45;&gt;path -->
<g id="edge59" class="edge">
<title>src/server.ts&#45;&gt;path</title>
<path fill="none" stroke="#000000" stroke-dasharray="5,2" stroke-opacity="0.200000" d="M72.12,-939.82C83.11,-954.78 103.8,-985.6 112,-1015.53 115.92,-1029.84 109.91,-1271.65 120,-1282.53 215.83,-1385.84 409.49,-1351.96 486.18,-1333.31"/>
<polygon fill="#000000" fill-opacity="0.200000" stroke="#000000" stroke-opacity="0.200000" points="487.04,-1335.26 492.36,-1331.77 486.03,-1331.18 487.04,-1335.26"/>
</g>
<!-- src/strategies/entry/reloadZoneStrategy.ts&#45;&gt;src/indicators/fibonacci.ts -->
<g id="edge67" class="edge">
<title>src/strategies/entry/reloadZoneStrategy.ts&#45;&gt;src/indicators/fibonacci.ts</title>
<path fill="none" stroke="#000000" stroke-width="2" stroke-opacity="0.200000" d="M359.85,-406.04C369.51,-408.54 378.79,-412.72 386,-419.53 396.66,-429.59 383.01,-441.83 394,-451.53 417.75,-472.48 454.72,-474.46 482.21,-472.27"/>
<polygon fill="#000000" fill-opacity="0.200000" stroke="#000000" stroke-width="2" stroke-opacity="0.200000" points="482.5,-474.35 488.28,-471.71 482.11,-470.17 482.5,-474.35"/>
</g>
<!-- src/strategies/entry/volumeOscillatorStrategy.ts&#45;&gt;src/indicators/index.ts -->
<g id="edge68" class="edge">
<title>src/strategies/entry/volumeOscillatorStrategy.ts&#45;&gt;src/indicators/index.ts</title>
<path fill="none" stroke="#000000" stroke-width="2" stroke-opacity="0.200000" d="M370.29,-486.12C375.75,-484.32 381.07,-482.15 386,-479.53 399.1,-472.55 410.69,-460.17 418.44,-450.48"/>
<polygon fill="#000000" fill-opacity="0.200000" stroke="#000000" stroke-width="2" stroke-opacity="0.200000" points="420.13,-451.73 422.14,-445.7 416.81,-449.16 420.13,-451.73"/>
</g>
<!-- src/strategies/exit/basic.ts&#45;&gt;src/utils/math.ts -->
<g id="edge70" class="edge">
<title>src/strategies/exit/basic.ts&#45;&gt;src/utils/math.ts</title>
<path fill="none" stroke="#000000" stroke-width="2" stroke-opacity="0.200000" d="M333.23,-702.43C350.1,-702.5 371.49,-705.42 386,-717.53 417.54,-743.85 425.68,-795.34 427.78,-821.09"/>
<polygon fill="#000000" fill-opacity="0.200000" stroke="#000000" stroke-width="2" stroke-opacity="0.200000" points="425.7,-821.5 428.2,-827.34 429.89,-821.21 425.7,-821.5"/>
</g>
<!-- src/strategies/exit/fibonacci.ts&#45;&gt;src/utils/math.ts -->
<g id="edge72" class="edge">
<title>src/strategies/exit/fibonacci.ts&#45;&gt;src/utils/math.ts</title>
<path fill="none" stroke="#000000" stroke-width="2" stroke-opacity="0.200000" d="M337.36,-673.04C353.65,-673.87 372.99,-677.69 386,-689.53 424.17,-724.28 428.88,-790.96 428.94,-821.08"/>
<polygon fill="#000000" fill-opacity="0.200000" stroke="#000000" stroke-width="2" stroke-opacity="0.200000" points="426.83,-821.24 428.88,-827.26 431.03,-821.28 426.83,-821.24"/>
</g>
<!-- src/strategies/exit/fibonacci.ts&#45;&gt;src/indicators/index.ts -->
<g id="edge71" class="edge">
<title>src/strategies/exit/fibonacci.ts&#45;&gt;src/indicators/index.ts</title>
<path fill="none" stroke="#000000" stroke-width="2" stroke-opacity="0.200000" d="M337.02,-676.5C353.61,-675.91 373.36,-672.16 386,-659.53 415.49,-630.05 425.27,-496.96 427.77,-451.67"/>
<polygon fill="#000000" fill-opacity="0.200000" stroke="#000000" stroke-width="2" stroke-opacity="0.200000" points="429.87,-451.75 428.09,-445.65 425.67,-451.53 429.87,-451.75"/>
</g>
<!-- src/strategies/exit/types.d.ts -->
<g id="node50" class="node">
<title>src/strategies/exit/types.d.ts</title>
<g id="a_node50"><a xlink:href="src/strategies/exit/types.d.ts" xlink:title="types.d.ts">
<path fill="#ccffcc" stroke="black" d="M200,-653.53C200,-653.53 157,-653.53 157,-653.53 154,-653.53 151,-650.53 151,-647.53 151,-647.53 151,-641.53 151,-641.53 151,-638.53 154,-635.53 157,-635.53 157,-635.53 200,-635.53 200,-635.53 203,-635.53 206,-638.53 206,-641.53 206,-641.53 206,-647.53 206,-647.53 206,-650.53 203,-653.53 200,-653.53"/>
<text text-anchor="start" x="159" y="-642.33" font-family="Helvetica,sans-Serif" font-size="9.00">types.d.ts</text>
</a>
</g>
</g>
<!-- src/strategies/tradeManagement.ts -->
<g id="node51" class="node">
<title>src/strategies/tradeManagement.ts</title>
<g id="a_node51"><a xlink:href="src/strategies/tradeManagement.ts" xlink:title="no&#45;orphans">
<path fill="#ccffcc" stroke="orange" d="M223,-259.53C223,-259.53 134,-259.53 134,-259.53 131,-259.53 128,-256.53 128,-253.53 128,-253.53 128,-247.53 128,-247.53 128,-244.53 131,-241.53 134,-241.53 134,-241.53 223,-241.53 223,-241.53 226,-241.53 229,-244.53 229,-247.53 229,-247.53 229,-253.53 229,-253.53 229,-256.53 226,-259.53 223,-259.53"/>
<text text-anchor="start" x="136" y="-248.33" font-family="Helvetica,sans-Serif" font-size="9.00" fill="orange">tradeManagement.ts</text>
</a>
</g>
</g>
<!-- src/strategies/trend/supertrend.ts&#45;&gt;src/indicators/index.ts -->
<g id="edge82" class="edge">
<title>src/strategies/trend/supertrend.ts&#45;&gt;src/indicators/index.ts</title>
<path fill="none" stroke="#000000" stroke-width="2" stroke-opacity="0.200000" d="M341.4,-312.33C357.2,-313.26 374.85,-317.4 386,-329.53 397.64,-342.19 386.07,-391.26 394,-406.53 397.36,-413 402.76,-418.69 408.29,-423.32"/>
<polygon fill="#000000" fill-opacity="0.200000" stroke="#000000" stroke-width="2" stroke-opacity="0.200000" points="407.33,-425.24 413.35,-427.28 409.92,-421.93 407.33,-425.24"/>
</g>
<!-- src/strategies/types.d.ts -->
<g id="node55" class="node">
<title>src/strategies/types.d.ts</title>
<g id="a_node55"><a xlink:href="src/strategies/types.d.ts" xlink:title="types.d.ts">
<path fill="#ccffcc" stroke="black" d="M200,-229.53C200,-229.53 157,-229.53 157,-229.53 154,-229.53 151,-226.53 151,-223.53 151,-223.53 151,-217.53 151,-217.53 151,-214.53 154,-211.53 157,-211.53 157,-211.53 200,-211.53 200,-211.53 203,-211.53 206,-214.53 206,-217.53 206,-217.53 206,-223.53 206,-223.53 206,-226.53 203,-229.53 200,-229.53"/>
<text text-anchor="start" x="159" y="-218.33" font-family="Helvetica,sans-Serif" font-size="9.00">types.d.ts</text>
</a>
</g>
</g>
</g>
</svg>
